<svg width="325" height="443" viewBox="0 0 325 443" fill="none" xmlns="http://www.w3.org/2000/svg">
<mask id="mask0_4_4" style="mask-type:alpha" maskUnits="userSpaceOnUse" x="-324" y="0" width="649" height="443">
<rect x="-324" width="649" height="443" fill="#C4C4C4"/>
</mask>
<g mask="url(#mask0_4_4)">
<g filter="url(#filter0_d_4_4)">
<path d="M-32.7336 706.465C493.399 681 1420.9 779 1456.9 656C1492.9 533 493.266 597.465 303.766 544.465C191.293 513.008 90.7664 387.965 92.7664 246.965C94.7664 105.965 -21.3787 -82.8216 -103.734 41.465C-227.983 228.977 -558.866 731.93 -32.7336 706.465Z" fill="#0D8CE9"/>
<path d="M1455.46 655.579C1453.34 662.818 1447.9 669.388 1439.18 675.316C1430.45 681.245 1418.54 686.457 1403.7 691.004C1374.02 700.099 1332.9 706.449 1282.82 710.7C1182.67 719.2 1046.98 719.279 895.912 716.308C813.942 714.696 727.446 712.186 639.659 709.639C403.947 702.798 158.922 695.687 -32.8061 704.967C-164.19 711.326 -241.57 684.66 -282.137 638.678C-322.687 592.718 -326.868 526.985 -310.663 454.157C-294.466 381.368 -257.979 301.862 -217.731 228.783C-177.492 155.72 -133.546 89.1724 -102.483 42.2935C-82.0797 11.5015 -59.8549 0.461126 -38.1669 2.8041C-16.3197 5.16427 5.53015 21.143 24.9741 45.6644C63.8327 94.6702 92.2618 176.777 91.2665 246.944C89.2571 388.608 190.217 514.265 303.362 545.91C327.201 552.577 363.673 557.374 409.082 560.925C454.518 564.477 508.999 566.788 568.909 568.454C635.762 570.313 709.431 571.37 784.863 572.453C844.593 573.31 905.428 574.183 964.863 575.482C1099.41 578.424 1226.84 583.553 1318.36 595.622C1364.15 601.66 1400.82 609.419 1424.88 619.451C1436.93 624.472 1445.66 630 1450.82 636.035C1455.92 641.992 1457.55 648.431 1455.46 655.579Z" stroke="#0D8CE9" stroke-width="3" stroke-linejoin="round"/>
<path d="M1455.46 655.579C1453.34 662.818 1447.9 669.388 1439.18 675.316C1430.45 681.245 1418.54 686.457 1403.7 691.004C1374.02 700.099 1332.9 706.449 1282.82 710.7C1182.67 719.2 1046.98 719.279 895.912 716.308C813.942 714.696 727.446 712.186 639.659 709.639C403.947 702.798 158.922 695.687 -32.8061 704.967C-164.19 711.326 -241.57 684.66 -282.137 638.678C-322.687 592.718 -326.868 526.985 -310.663 454.157C-294.466 381.368 -257.979 301.862 -217.731 228.783C-177.492 155.72 -133.546 89.1724 -102.483 42.2935C-82.0797 11.5015 -59.8549 0.461126 -38.1669 2.8041C-16.3197 5.16427 5.53015 21.143 24.9741 45.6644C63.8327 94.6702 92.2618 176.777 91.2665 246.944C89.2571 388.608 190.217 514.265 303.362 545.91C327.201 552.577 363.673 557.374 409.082 560.925C454.518 564.477 508.999 566.788 568.909 568.454C635.762 570.313 709.431 571.37 784.863 572.453C844.593 573.31 905.428 574.183 964.863 575.482C1099.41 578.424 1226.84 583.553 1318.36 595.622C1364.15 601.66 1400.82 609.419 1424.88 619.451C1436.93 624.472 1445.66 630 1450.82 636.035C1455.92 641.992 1457.55 648.431 1455.46 655.579Z" stroke="#0D8CE9" stroke-opacity="0.2" stroke-width="3" stroke-linejoin="round"/>
</g>
</g>
<defs>
<filter id="filter0_d_4_4" x="-333" y="-5" width="1802.85" height="742.582" filterUnits="userSpaceOnUse" color-interpolation-filters="sRGB">
<feFlood flood-opacity="0" result="BackgroundImageFix"/>
<feColorMatrix in="SourceAlpha" type="matrix" values="0 0 0 0 0 0 0 0 0 0 0 0 0 0 0 0 0 0 127 0" result="hardAlpha"/>
<feOffset dy="6"/>
<feGaussianBlur stdDeviation="6"/>
<feComposite in2="hardAlpha" operator="out"/>
<feColorMatrix type="matrix" values="0 0 0 0 0 0 0 0 0 0 0 0 0 0 0 0 0 0 0.15 0"/>
<feBlend mode="normal" in2="BackgroundImageFix" result="effect1_dropShadow_4_4"/>
<feBlend mode="normal" in="SourceGraphic" in2="effect1_dropShadow_4_4" result="shape"/>
</filter>
</defs>
</svg>
