<svg width="1440" height="304" viewBox="0 0 1440 304" fill="none" xmlns="http://www.w3.org/2000/svg">
<mask id="mask0_5_6" style="mask-type:alpha" maskUnits="userSpaceOnUse" x="-324" y="0" width="1784" height="304">
<rect x="-324" width="1784" height="304" fill="#C4C4C4"/>
</mask>
<g mask="url(#mask0_5_6)">
<g filter="url(#filter0_d_5_6)">
<path d="M-32.7336 267.465C493.399 242 1420.9 340 1456.9 217C1492.9 94 493.266 158.465 303.766 105.465C191.293 74.0081 90.7664 -51.0349 92.7664 -192.035C94.7664 -333.035 -21.3787 -521.822 -103.734 -397.535C-227.983 -210.023 -558.866 292.93 -32.7336 267.465Z" fill="#0D8CE9"/>
<path d="M1455.46 216.579C1453.34 223.818 1447.9 230.388 1439.18 236.316C1430.45 242.245 1418.54 247.457 1403.7 252.004C1374.02 261.099 1332.9 267.449 1282.82 271.7C1182.67 280.2 1046.98 280.279 895.912 277.308C813.942 275.696 727.446 273.186 639.659 270.639C403.947 263.798 158.922 256.687 -32.8061 265.967C-164.19 272.326 -241.57 245.66 -282.137 199.678C-322.687 153.718 -326.868 87.9847 -310.663 15.1573C-294.466 -57.6324 -257.979 -137.138 -217.731 -210.217C-177.492 -283.28 -133.546 -349.828 -102.483 -396.707C-82.0797 -427.499 -59.8549 -438.539 -38.1669 -436.196C-16.3197 -433.836 5.53015 -417.857 24.9741 -393.336C63.8327 -344.33 92.2618 -262.223 91.2665 -192.056C89.2571 -50.3924 190.217 75.2648 303.362 106.91C327.201 113.577 363.673 118.374 409.082 121.925C454.518 125.477 508.999 127.788 568.909 129.454C635.762 131.313 709.431 132.37 784.863 133.453C844.593 134.31 905.428 135.183 964.863 136.482C1099.41 139.424 1226.84 144.553 1318.36 156.622C1364.15 162.66 1400.82 170.419 1424.88 180.451C1436.93 185.472 1445.66 191 1450.82 197.035C1455.92 202.992 1457.55 209.431 1455.46 216.579Z" stroke="#0D8CE9" stroke-width="3" stroke-linejoin="round"/>
<path d="M1455.46 216.579C1453.34 223.818 1447.9 230.388 1439.18 236.316C1430.45 242.245 1418.54 247.457 1403.7 252.004C1374.02 261.099 1332.9 267.449 1282.82 271.7C1182.67 280.2 1046.98 280.279 895.912 277.308C813.942 275.696 727.446 273.186 639.659 270.639C403.947 263.798 158.922 256.687 -32.8061 265.967C-164.19 272.326 -241.57 245.66 -282.137 199.678C-322.687 153.718 -326.868 87.9847 -310.663 15.1573C-294.466 -57.6324 -257.979 -137.138 -217.731 -210.217C-177.492 -283.28 -133.546 -349.828 -102.483 -396.707C-82.0797 -427.499 -59.8549 -438.539 -38.1669 -436.196C-16.3197 -433.836 5.53015 -417.857 24.9741 -393.336C63.8327 -344.33 92.2618 -262.223 91.2665 -192.056C89.2571 -50.3924 190.217 75.2648 303.362 106.91C327.201 113.577 363.673 118.374 409.082 121.925C454.518 125.477 508.999 127.788 568.909 129.454C635.762 131.313 709.431 132.37 784.863 133.453C844.593 134.31 905.428 135.183 964.863 136.482C1099.41 139.424 1226.84 144.553 1318.36 156.622C1364.15 162.66 1400.82 170.419 1424.88 180.451C1436.93 185.472 1445.66 191 1450.82 197.035C1455.92 202.992 1457.55 209.431 1455.46 216.579Z" stroke="#0D8CE9" stroke-opacity="0.2" stroke-width="3" stroke-linejoin="round"/>
</g>
</g>
<defs>
<filter id="filter0_d_5_6" x="-333" y="-444" width="1802.85" height="742.582" filterUnits="userSpaceOnUse" color-interpolation-filters="sRGB">
<feFlood flood-opacity="0" result="BackgroundImageFix"/>
<feColorMatrix in="SourceAlpha" type="matrix" values="0 0 0 0 0 0 0 0 0 0 0 0 0 0 0 0 0 0 127 0" result="hardAlpha"/>
<feOffset dy="6"/>
<feGaussianBlur stdDeviation="6"/>
<feComposite in2="hardAlpha" operator="out"/>
<feColorMatrix type="matrix" values="0 0 0 0 0 0 0 0 0 0 0 0 0 0 0 0 0 0 0.15 0"/>
<feBlend mode="normal" in2="BackgroundImageFix" result="effect1_dropShadow_5_6"/>
<feBlend mode="normal" in="SourceGraphic" in2="effect1_dropShadow_5_6" result="shape"/>
</filter>
</defs>
</svg>
