<svg id="svg" version="1.1" xmlns="http://www.w3.org/2000/svg" xmlns:xlink="http://www.w3.org/1999/xlink" width="400" height="400" viewBox="0, 0, 400,400"><g id="svgg"><path id="path0" d="M31.254 181.398 C 28.306 182.058,26.947 182.839,26.310 184.238 C 25.840 185.269,26.019 185.762,28.416 190.050 C 29.208 191.466,30.112 194.940,31.371 201.400 C 31.729 203.237,32.579 205.720,33.365 207.228 C 35.053 210.465,35.787 212.981,36.621 218.400 C 37.074 221.342,37.853 224.097,39.222 227.600 C 40.296 230.350,41.710 234.977,42.363 237.882 C 43.015 240.787,44.181 244.747,44.953 246.682 C 46.569 250.729,47.379 253.520,48.006 257.200 C 48.724 261.410,49.965 265.247,51.371 267.600 C 52.875 270.117,53.263 271.517,54.373 278.425 C 55.283 284.088,56.291 287.327,57.966 289.968 C 58.605 290.975,59.391 292.430,59.713 293.200 C 60.034 293.970,60.784 295.050,61.380 295.600 L 62.464 296.600 78.332 296.706 C 96.776 296.829,96.161 296.944,97.416 293.132 C 97.802 291.959,99.090 289.110,100.278 286.800 C 102.305 282.859,102.501 282.217,103.447 276.400 C 104.291 271.212,104.736 269.580,106.176 266.400 C 108.321 261.662,108.531 260.980,109.789 254.683 C 110.449 251.380,111.294 248.545,112.174 246.683 C 112.924 245.097,113.921 242.000,114.390 239.800 C 116.180 231.403,116.517 230.115,117.681 227.200 C 119.727 222.076,119.949 221.379,120.955 216.929 C 121.493 214.548,122.754 210.477,123.758 207.883 C 124.761 205.289,125.784 201.959,126.030 200.483 C 126.792 195.917,128.416 189.892,129.431 187.867 C 132.221 182.302,128.643 180.651,114.313 180.891 C 98.125 181.162,98.407 180.919,96.566 196.200 C 96.220 199.068,95.523 202.566,95.012 204.000 C 94.503 205.430,93.615 207.905,93.040 209.500 C 92.465 211.094,91.729 214.244,91.404 216.500 C 90.381 223.593,89.526 227.714,88.521 230.400 C 86.904 234.717,86.427 236.846,85.216 245.159 C 83.514 256.832,82.496 258.841,78.742 257.924 C 75.874 257.223,75.589 256.556,73.828 246.400 C 72.199 237.010,71.866 235.662,69.840 230.267 C 68.750 227.367,67.998 224.170,66.977 218.089 C 66.088 212.802,65.094 208.388,64.205 205.787 C 62.428 200.587,61.730 197.587,60.586 190.238 C 59.516 183.364,59.138 182.723,55.544 181.689 C 52.467 180.803,34.851 180.593,31.254 181.398 M147.954 181.333 C 145.846 182.114,144.171 183.421,143.642 184.700 C 143.296 185.535,143.206 199.446,143.289 239.428 C 143.414 299.703,143.112 294.323,146.459 296.030 C 148.593 297.119,170.414 297.092,172.588 295.998 C 174.906 294.832,174.788 297.895,174.794 238.922 L 174.800 184.445 173.890 183.387 C 172.003 181.192,152.506 179.648,147.954 181.333 M203.000 181.175 C 197.374 182.551,196.991 183.357,197.054 193.671 C 197.133 206.529,196.226 206.000,218.189 206.000 C 233.978 206.000,234.573 206.062,236.500 207.900 C 238.130 209.455,236.986 212.881,233.614 216.538 C 232.767 217.457,231.502 219.407,230.802 220.871 C 229.935 222.688,228.918 224.050,227.599 225.162 C 226.135 226.396,225.501 227.301,224.979 228.895 C 223.934 232.090,223.031 233.644,221.199 235.400 C 220.281 236.280,218.984 238.080,218.316 239.400 C 217.648 240.720,216.333 242.627,215.394 243.637 C 213.510 245.663,212.823 246.839,211.576 250.173 C 210.993 251.732,210.255 252.800,209.150 253.688 C 208.174 254.472,207.109 255.915,206.385 257.432 C 205.737 258.789,204.426 260.867,203.471 262.050 C 202.516 263.232,201.143 265.280,200.419 266.600 C 199.696 267.920,198.108 270.308,196.892 271.906 C 192.692 277.423,191.522 292.002,194.999 295.479 L 196.320 296.800 235.573 296.800 C 278.154 296.800,276.748 296.872,278.218 294.629 C 279.342 292.914,279.566 276.738,278.492 274.813 C 276.742 271.674,277.736 271.824,257.271 271.600 C 234.826 271.354,234.995 271.391,235.697 266.890 C 236.347 262.726,236.778 261.732,239.741 257.548 C 241.356 255.266,242.973 252.829,243.333 252.131 C 243.694 251.433,244.719 250.018,245.612 248.987 C 246.504 247.955,247.866 245.857,248.638 244.324 C 249.410 242.791,250.753 240.766,251.621 239.823 C 252.490 238.881,253.729 236.943,254.376 235.517 C 255.122 233.872,256.283 232.223,257.552 231.007 C 258.873 229.741,259.852 228.329,260.436 226.845 C 261.600 223.891,262.617 222.187,264.519 220.000 C 265.380 219.010,266.624 217.120,267.284 215.800 C 267.944 214.480,269.320 212.589,270.342 211.597 C 271.619 210.358,272.553 208.926,273.329 207.017 C 273.951 205.490,274.989 203.572,275.636 202.755 C 278.433 199.223,278.869 197.484,278.728 190.410 L 278.600 184.013 277.303 182.718 C 276.140 181.555,275.687 181.393,272.903 181.139 C 268.792 180.765,204.542 180.798,203.000 181.175 M326.800 194.792 C 321.900 195.402,321.973 195.179,321.656 210.458 L 321.400 222.786 320.134 224.051 C 318.415 225.770,316.993 225.948,304.754 225.976 C 291.040 226.008,290.511 226.514,290.873 239.247 C 291.136 248.523,290.440 248.111,306.200 248.326 C 322.862 248.554,321.329 247.014,321.600 263.800 C 321.862 280.073,321.775 279.887,329.464 280.505 C 336.916 281.104,342.270 280.041,343.885 277.641 C 344.785 276.304,344.800 276.095,344.802 264.841 C 344.805 252.450,344.994 250.981,346.780 249.478 L 347.936 248.505 360.068 248.324 C 372.904 248.133,373.420 248.057,374.659 246.166 C 375.703 244.572,375.930 234.595,375.007 230.830 C 373.796 225.887,374.818 226.232,360.717 226.000 C 343.834 225.722,344.822 226.707,344.809 210.150 C 344.799 197.980,344.696 197.012,343.309 196.104 C 341.111 194.663,333.002 194.019,326.800 194.792 " stroke="none" fill="#ffffff" fill-rule="evenodd"></path><path id="path1" d="M0.000 200.000 L 0.000 400.000 200.000 400.000 L 400.000 400.000 400.000 200.000 L 400.000 0.000 200.000 0.000 L 0.000 0.000 0.000 200.000 M55.544 181.689 C 59.138 182.723,59.516 183.364,60.586 190.238 C 61.730 197.587,62.428 200.587,64.205 205.787 C 65.094 208.388,66.088 212.802,66.977 218.089 C 67.998 224.170,68.750 227.367,69.840 230.267 C 71.866 235.662,72.199 237.010,73.828 246.400 C 75.589 256.556,75.874 257.223,78.742 257.924 C 82.496 258.841,83.514 256.832,85.216 245.159 C 86.427 236.846,86.904 234.717,88.521 230.400 C 89.526 227.714,90.381 223.593,91.404 216.500 C 91.729 214.244,92.465 211.094,93.040 209.500 C 93.615 207.905,94.503 205.430,95.012 204.000 C 95.523 202.566,96.220 199.068,96.566 196.200 C 98.407 180.919,98.125 181.162,114.313 180.891 C 128.643 180.651,132.221 182.302,129.431 187.867 C 128.416 189.892,126.792 195.917,126.030 200.483 C 125.784 201.959,124.761 205.289,123.758 207.883 C 122.754 210.477,121.493 214.548,120.955 216.929 C 119.949 221.379,119.727 222.076,117.681 227.200 C 116.517 230.115,116.180 231.403,114.390 239.800 C 113.921 242.000,112.924 245.097,112.174 246.683 C 111.294 248.545,110.449 251.380,109.789 254.683 C 108.531 260.980,108.321 261.662,106.176 266.400 C 104.736 269.580,104.291 271.212,103.447 276.400 C 102.501 282.217,102.305 282.859,100.278 286.800 C 99.090 289.110,97.802 291.959,97.416 293.132 C 96.161 296.944,96.776 296.829,78.332 296.706 L 62.464 296.600 61.380 295.600 C 60.784 295.050,60.034 293.970,59.713 293.200 C 59.391 292.430,58.605 290.975,57.966 289.968 C 56.291 287.327,55.283 284.088,54.373 278.425 C 53.263 271.517,52.875 270.117,51.371 267.600 C 49.965 265.247,48.724 261.410,48.006 257.200 C 47.379 253.520,46.569 250.729,44.953 246.682 C 44.181 244.747,43.015 240.787,42.363 237.882 C 41.710 234.977,40.296 230.350,39.222 227.600 C 37.853 224.097,37.074 221.342,36.621 218.400 C 35.787 212.981,35.053 210.465,33.365 207.228 C 32.579 205.720,31.729 203.237,31.371 201.400 C 30.112 194.940,29.208 191.466,28.416 190.050 C 25.554 184.931,25.477 184.085,27.736 182.605 C 30.544 180.766,50.095 180.121,55.544 181.689 M170.790 181.701 C 172.109 182.080,173.343 182.751,173.890 183.387 L 174.800 184.445 174.794 238.922 C 174.788 297.895,174.906 294.832,172.588 295.998 C 170.414 297.092,148.593 297.119,146.459 296.030 C 143.112 294.323,143.414 299.703,143.289 239.428 C 143.206 199.446,143.296 185.535,143.642 184.700 C 144.171 183.421,145.846 182.114,147.954 181.333 C 150.085 180.544,167.749 180.829,170.790 181.701 M272.903 181.139 C 275.687 181.393,276.140 181.555,277.303 182.718 L 278.600 184.013 278.728 190.410 C 278.869 197.484,278.433 199.223,275.636 202.755 C 274.989 203.572,273.951 205.490,273.329 207.017 C 272.553 208.926,271.619 210.358,270.342 211.597 C 269.320 212.589,267.944 214.480,267.284 215.800 C 266.624 217.120,265.380 219.010,264.519 220.000 C 262.617 222.187,261.600 223.891,260.436 226.845 C 259.852 228.329,258.873 229.741,257.552 231.007 C 256.283 232.223,255.122 233.872,254.376 235.517 C 253.729 236.943,252.490 238.881,251.621 239.823 C 250.753 240.766,249.410 242.791,248.638 244.324 C 247.866 245.857,246.504 247.955,245.612 248.987 C 244.719 250.018,243.694 251.433,243.333 252.131 C 242.973 252.829,241.356 255.266,239.741 257.548 C 236.778 261.732,236.347 262.726,235.697 266.890 C 234.995 271.391,234.826 271.354,257.271 271.600 C 277.736 271.824,276.742 271.674,278.492 274.813 C 279.566 276.738,279.342 292.914,278.218 294.629 C 276.748 296.872,278.154 296.800,235.573 296.800 L 196.320 296.800 194.999 295.479 C 191.522 292.002,192.692 277.423,196.892 271.906 C 198.108 270.308,199.696 267.920,200.419 266.600 C 201.143 265.280,202.516 263.232,203.471 262.050 C 204.426 260.867,205.737 258.789,206.385 257.432 C 207.109 255.915,208.174 254.472,209.150 253.688 C 210.255 252.800,210.993 251.732,211.576 250.173 C 212.823 246.839,213.510 245.663,215.394 243.637 C 216.333 242.627,217.648 240.720,218.316 239.400 C 218.984 238.080,220.281 236.280,221.199 235.400 C 223.031 233.644,223.934 232.090,224.979 228.895 C 225.501 227.301,226.135 226.396,227.599 225.162 C 228.918 224.050,229.935 222.688,230.802 220.871 C 231.502 219.407,232.767 217.457,233.614 216.538 C 236.986 212.881,238.130 209.455,236.500 207.900 C 234.573 206.062,233.978 206.000,218.189 206.000 C 196.226 206.000,197.133 206.529,197.054 193.671 C 196.991 183.357,197.374 182.551,203.000 181.175 C 204.542 180.798,268.792 180.765,272.903 181.139 M339.664 194.945 C 344.938 195.966,344.797 195.550,344.809 210.150 C 344.822 226.707,343.834 225.722,360.717 226.000 C 374.818 226.232,373.796 225.887,375.007 230.830 C 375.930 234.595,375.703 244.572,374.659 246.166 C 373.420 248.057,372.904 248.133,360.068 248.324 L 347.936 248.505 346.780 249.478 C 344.994 250.981,344.805 252.450,344.802 264.841 C 344.800 276.095,344.785 276.304,343.885 277.641 C 342.270 280.041,336.916 281.104,329.464 280.505 C 321.775 279.887,321.862 280.073,321.600 263.800 C 321.329 247.014,322.862 248.554,306.200 248.326 C 290.440 248.111,291.136 248.523,290.873 239.247 C 290.511 226.514,291.040 226.008,304.754 225.976 C 316.993 225.948,318.415 225.770,320.134 224.051 L 321.400 222.786 321.656 210.458 C 321.973 195.179,321.900 195.402,326.800 194.792 C 330.526 194.328,336.865 194.403,339.664 194.945 " stroke="none" fill="#0d8ce9" fill-rule="evenodd"></path></g></svg>