<svg width="429" height="352" viewBox="0 0 429 352" fill="none" xmlns="http://www.w3.org/2000/svg">
<path d="M419.62 100.326C377.434 14.4146 255.759 -7.21477 184.049 2.22558C112.584 11.647 40.1737 46.072 10.1761 102.354C-4.62393 130.144 0.107551 168.304 10.0626 189.326C23.1404 216.927 64.0961 284.052 233.105 272.773C369.807 263.636 408.169 208.037 421.001 175.678C430.578 151.546 431.202 123.907 419.62 100.326Z" fill="#BCDFDF"/>
<path d="M353.398 245.21C337.936 176.19 262.895 145.025 215.693 143.129C168.643 141.234 117.619 157.802 90.8199 195.866C77.5907 214.652 75.4899 243.561 79.0291 260.413C83.6849 282.536 100.889 337.453 210.678 350.059C299.478 360.257 331.558 323.747 344.125 301.322C353.512 284.602 357.638 264.167 353.398 245.21Z" fill="#99D3DD"/>
<path d="M298.4 173.582C309.395 125.936 279.746 78.3842 232.177 67.3713C184.608 56.3584 137.133 86.0553 126.138 133.701C115.143 181.347 144.792 228.899 192.361 239.912C239.929 250.925 287.405 221.228 298.4 173.582Z" fill="white"/>
<path d="M322.094 225.363C313.199 200.985 287.271 196.833 264.389 198.369C228.96 200.738 193.549 203.866 158.139 206.615C158.063 206.615 158.007 206.653 157.931 206.653C145.894 204.15 132.759 204.264 121.366 209.439C110.578 214.349 111.449 223.846 112.641 234.102C113.985 245.779 113.928 259.219 119.019 270.024C121.12 274.498 124.11 278.176 128.047 281.152C133.479 285.284 141.768 287.559 142.998 295.123C143.585 298.724 146.935 300.146 150.077 299.767C151.042 299.976 152.102 299.976 153.275 299.653C158.234 298.251 162.473 295.616 166.485 292.564C185.733 303.369 206.514 305.208 232.878 304.203C246.107 303.691 297.226 298.232 307.124 291.388C325.369 278.782 329.457 245.551 322.094 225.363Z" fill="white"/>
<path d="M185.752 160.304C192.433 172.114 207.611 174.92 219.97 171.811C226.272 170.237 232.007 164.683 232.802 158.863C240.599 158.276 249.154 155.887 250.327 148.589C251.368 142.182 247.091 139.869 242.132 139.755C242.681 135.85 242.87 131.926 242.738 127.85C242.662 125.291 241.224 123.775 239.407 123.149C239.975 119.206 235.149 114.619 230.379 117.216C220.992 122.334 212.4 121.955 202.293 120.04C196.521 118.96 189.783 119.187 185.809 124.249C179.355 132.533 180.869 151.66 185.752 160.304Z" fill="#FDDBBF"/>
<path d="M205.302 174.332C206.248 172.891 207.895 171.905 209.617 171.773C210.677 169.517 213.364 167.981 215.825 168.55C218.928 169.27 220.821 172.038 220.367 175.185C219.95 178.047 218.096 180.474 215.654 181.896C215.257 182.521 214.746 183.071 214.083 183.469C211.528 185.061 207.914 184.663 206.191 181.99C205.907 181.535 205.624 181.099 205.321 180.644C204.072 178.711 204.034 176.265 205.302 174.332Z" fill="#FDDBBF"/>
<path d="M242.284 117.917C242.492 116.988 242.7 116.06 242.946 115.15C243.325 113.766 244.365 112.951 245.728 112.894C245.728 112.799 245.728 112.723 245.747 112.628C246.031 111.15 247.564 110.031 249.059 110.354C252.655 111.15 253.393 115.225 253.791 118.391C254.699 118.808 255.418 119.623 255.437 120.685C255.475 123.073 255.399 125.462 255.191 127.831C255.002 129.993 254.794 132.248 254.226 134.334C253.545 136.874 251.425 139.073 248.586 138.144C248.302 138.049 248.018 137.916 247.753 137.765C247.11 138.94 245.217 139.585 244.082 138.845C242.511 137.841 241.621 136.362 241.962 134.447C241.962 134.409 241.981 134.39 241.981 134.353C241.205 133.898 240.618 133.139 240.618 132.21C240.637 127.945 241.053 123.718 241.886 119.566C241.905 119.339 241.905 119.13 241.924 118.903C241.962 118.543 242.094 118.221 242.284 117.917Z" fill="#F4CA99"/>
<path d="M185.183 114.031C191.202 117.993 199.018 119.832 206.115 120.401C218.417 121.367 230.889 118.486 241.336 111.965C241.904 112.761 242.851 113.216 243.91 113.254C246.314 113.349 248.244 111.301 248.699 109.046C249.191 106.524 247.923 104.231 245.822 102.885C243.418 101.349 240.333 101.046 237.57 100.667C234.447 100.231 231.325 99.9465 228.24 99.3209C225.23 98.7143 222.221 97.7665 219.742 95.8898C217.244 94.0131 215.238 91.6246 212.172 90.6578C209.541 89.8237 206.759 90.4682 204.923 92.0416C202.671 90.146 199.775 89.1223 196.671 89.7858C194.627 90.2218 192.791 91.454 191.504 93.0842C190.691 92.5914 189.82 92.2122 188.855 92.0037C185.164 91.1696 181.549 93.1411 179.581 96.231C175.417 102.676 179.468 110.259 185.183 114.031Z" fill="#DC9F5C"/>
<path d="M238.101 159.83C238.801 158.825 239.577 157.897 240.391 157.006C240.902 156.134 241.356 155.205 241.678 154.257C241.886 153.631 242.681 153.044 243.268 152.835C243.93 152.589 244.839 152.608 245.463 152.949C246.107 153.29 246.674 153.84 246.883 154.541L247.034 155.262C247.072 155.773 246.977 156.285 246.75 156.74C246.674 156.949 246.561 157.157 246.485 157.385C246.485 157.385 246.485 157.385 246.485 157.404C246.523 158.143 246.334 158.939 245.804 159.508C245.52 159.773 245.274 160.077 244.99 160.38C244.233 161.555 243.362 162.636 242.359 163.565C241.811 164.095 241.243 164.474 240.448 164.531C239.748 164.588 238.877 164.342 238.347 163.849C237.817 163.356 237.401 162.674 237.382 161.934C237.401 161.688 237.401 161.422 237.42 161.176C237.571 160.664 237.779 160.228 238.101 159.83Z" fill="#F4CA99"/>
<path d="M242.057 190.597C235.698 186.957 228.922 184.151 221.882 182.104C220.121 181.592 218.267 182.919 217.642 184.549C204.527 183.166 191.051 186.009 179.601 192.701C173.885 196.037 168.264 200.814 167.28 207.638C177.519 202.027 189.878 200.719 201.65 201.895C212.192 191.905 227.484 190.123 242.057 190.597Z" fill="#FBBE49"/>
<path d="M217.945 171.337C219.042 171.432 219.705 172.247 219.743 173.308C219.78 174.029 219.818 174.749 219.875 175.469C219.875 175.507 219.875 175.526 219.875 175.545C219.875 175.564 219.875 175.583 219.875 175.621C219.894 175.792 219.913 175.943 219.932 176.114C219.97 176.474 220.008 176.834 220.045 177.194C220.216 178.597 220.443 180 220.708 181.384C220.897 182.35 220.31 183.469 219.288 183.658C218.304 183.829 217.225 183.26 217.017 182.237C216.431 179.242 216.09 176.19 215.938 173.157C215.938 172.152 216.998 171.242 217.945 171.337Z" fill="#651811"/>
<path d="M198.3 182.237C198.129 182.616 198.413 181.971 198.451 181.914C198.527 181.763 198.584 181.611 198.659 181.441C198.811 181.08 198.962 180.701 199.113 180.341C199.378 179.659 199.624 178.957 199.833 178.256C200.041 177.554 200.249 176.834 200.419 176.133C200.514 175.754 200.59 175.355 200.665 174.976C200.665 174.938 200.684 174.901 200.684 174.882C200.684 174.863 200.684 174.844 200.703 174.806C200.741 174.578 200.779 174.351 200.817 174.142C200.968 173.157 201.706 172.228 202.785 172.341C203.712 172.417 204.753 173.27 204.583 174.313C204.053 177.82 203.012 181.118 201.479 184.303C201.044 185.194 199.624 185.402 198.867 184.872C197.94 184.189 197.845 183.185 198.3 182.237Z" fill="#651811"/>
<path d="M199.358 181.005C200.873 182.104 202.671 182.256 204.487 182.369C206.38 182.502 208.273 182.54 210.165 182.445C213.988 182.275 217.792 181.459 221.199 179.659C223.357 178.521 225.117 181.877 222.959 183.014C218.928 185.118 214.499 186.009 209.995 186.218C207.837 186.312 205.68 186.255 203.541 186.085C201.346 185.895 199.131 185.497 197.314 184.17C195.327 182.749 197.371 179.564 199.358 181.005Z" fill="#651811"/>
<path d="M195.934 184.436C198.754 187.791 203.713 187.791 207.725 187.431C213.024 186.957 218.267 185.744 223.244 183.848C225.515 182.995 227.181 186.388 224.891 187.26C219.137 189.459 213.1 190.881 206.949 191.26C201.971 191.582 196.464 190.976 193.038 186.9C191.486 185.023 194.363 182.559 195.934 184.436Z" fill="#651811"/>
<path d="M161.356 206.88C169.191 197.686 178.389 189.137 189.972 185.061C190.937 184.72 192.016 184.948 192.508 185.933C192.924 186.767 192.603 188.132 191.638 188.473C180.679 192.341 171.917 200.321 164.479 209.041C162.908 210.88 159.766 208.738 161.356 206.88Z" fill="#651811"/>
<path d="M204.223 144.722C206.948 143.755 207.989 140.589 208.746 138.087C209.106 136.912 210.904 137.499 210.544 138.675C209.712 141.442 208.538 144.286 206.116 145.84C206.835 146.333 207.649 146.674 208.519 146.788C209.03 146.864 209.447 147.224 209.428 147.774C209.409 148.248 208.955 148.741 208.444 148.684C206.627 148.437 204.999 147.641 203.75 146.295C203.22 145.726 203.58 144.949 204.223 144.722Z" fill="#651811"/>
<path d="M194.931 133.537C195.158 132.192 195.707 130.599 196.862 130.068C197.221 129.898 197.6 129.879 197.959 129.974C197.978 129.974 197.997 129.955 198.016 129.974C199.322 130.106 199.909 131.642 200.174 132.988C200.458 134.409 200.382 135.945 199.985 137.329C199.625 138.561 198.887 139.85 197.695 140.002C196.502 140.153 195.575 139.054 195.177 137.841C194.742 136.476 194.685 134.978 194.931 133.537Z" fill="#651811"/>
<path d="M222.429 138.163C222.656 136.817 223.205 135.225 224.36 134.694C224.719 134.523 225.098 134.504 225.458 134.599C225.476 134.599 225.495 134.58 225.514 134.599C226.82 134.732 227.407 136.267 227.672 137.613C227.956 139.035 227.88 140.57 227.483 141.954C227.123 143.186 226.385 144.475 225.193 144.627C224 144.779 223.073 143.679 222.675 142.466C222.24 141.101 222.183 139.603 222.429 138.163Z" fill="#651811"/>
<path d="M179.941 145.025C180.774 136.855 184.521 128.893 183.291 120.59C182.931 118.183 186.622 117.33 186.982 119.737C188.212 127.964 185.089 135.547 183.935 143.584C182.818 151.319 184.9 158.522 190.615 163.982C203.239 176.076 222.638 170.787 234.675 160.873C236.549 159.318 239.122 162.105 237.23 163.659C226.821 172.228 213.099 177.346 199.719 173.403C187.247 169.725 178.597 158.124 179.941 145.025Z" fill="#651811"/>
<path d="M226.839 126.012C227.672 125.898 228.524 125.993 229.318 126.296C230.757 126.846 231.873 127.964 232.441 129.405C232.517 129.519 232.555 129.632 232.593 129.746C232.612 129.784 232.63 129.822 232.63 129.86C232.687 130.087 232.63 130.334 232.498 130.542C232.422 130.713 232.328 130.865 232.195 130.997C231.93 131.263 231.344 131.32 231.041 131.054C230.624 130.694 230.227 130.334 229.792 130.012C229.583 129.86 229.375 129.708 229.167 129.576C229.072 129.519 228.978 129.462 228.883 129.405C228.826 129.367 228.751 129.329 228.694 129.291C228.58 129.234 228.561 129.215 228.618 129.253C228.41 129.14 228.164 129.045 227.937 128.969C227.804 128.931 227.672 128.893 227.539 128.855C227.369 128.798 227.558 128.855 227.369 128.817C226.801 128.722 226.498 128.722 225.969 128.855C225.325 129.007 224.852 128.438 224.833 127.85C224.833 126.77 225.912 126.125 226.839 126.012Z" fill="#651811"/>
<path d="M193.474 123.339C194.155 122.846 194.95 122.524 195.783 122.41C197.316 122.201 198.83 122.656 200.003 123.642C200.117 123.699 200.211 123.775 200.287 123.87C200.325 123.908 200.363 123.908 200.382 123.945C200.552 124.116 200.609 124.362 200.59 124.609C200.609 124.798 200.59 124.969 200.533 125.14C200.42 125.5 199.946 125.841 199.549 125.746C199.019 125.633 198.489 125.5 197.959 125.424C197.713 125.386 197.467 125.348 197.202 125.329C197.089 125.329 196.994 125.31 196.88 125.31C196.805 125.31 196.729 125.31 196.672 125.31C196.559 125.31 196.521 125.31 196.597 125.31C196.351 125.31 196.105 125.348 195.858 125.386C195.726 125.405 195.575 125.443 195.442 125.481C195.272 125.519 195.461 125.462 195.291 125.519C194.742 125.708 194.477 125.86 194.079 126.22C193.587 126.675 192.887 126.391 192.603 125.879C192.073 124.95 192.717 123.889 193.474 123.339Z" fill="#651811"/>
<path d="M210.582 85.5395C211.604 85.2172 212.569 86.1461 212.815 87.0371C213.989 91.3402 217.623 94.2406 221.692 95.6623C226.537 97.3305 231.571 96.7807 236.586 97.0461C240.655 97.2736 244.611 98.2214 247.715 101.008C250.327 103.359 251.954 106.714 251.292 110.259C250.838 112.628 247.071 112.382 247.525 109.974C248.282 105.956 244.97 102.771 241.375 101.615C236.7 100.117 231.552 101.027 226.745 100.553C219.629 99.8517 212.683 96.4585 209.825 89.8047C205.207 91.5487 199.908 94.8661 201.706 100.496C202.444 102.828 198.734 103.529 197.996 101.235C195.29 92.7809 203.92 87.7006 210.582 85.5395Z" fill="#651811"/>
<path d="M193.076 89.7479C195.82 87.2267 199.473 85.9187 203.182 85.8997C204.204 85.8997 204.999 86.9613 204.924 87.9281C204.848 89.0086 203.921 89.6721 202.899 89.6721C200.325 89.691 197.562 90.7526 195.536 92.6103C193.492 94.506 192.262 97.1978 192.073 99.9465C191.997 100.97 191.07 101.766 190.048 101.691C189.026 101.615 188.231 100.686 188.307 99.6622C188.591 95.9088 190.294 92.307 193.076 89.7479Z" fill="#651811"/>
<path d="M191.278 88.6484C193.682 88.9327 193.436 92.7051 190.994 92.4207C184.484 91.6625 180.169 102.051 182.326 107.188C184.598 112.647 191.543 115.093 196.71 116.685C209.22 120.533 222.96 119.585 234.884 114.24C237.098 113.235 238.782 116.647 236.549 117.652C221.882 124.23 204.356 124.685 189.594 118.069C183.348 115.263 177.292 110.316 177.973 102.752C178.503 96.3637 183.992 87.7953 191.278 88.6484Z" fill="#651811"/>
<path d="M240.221 115.055C241.016 114.846 241.811 114.619 242.587 114.372C242.927 114.259 243.249 114.164 243.59 114.05C243.665 114.031 243.798 113.974 243.836 113.974C244.044 113.898 244.252 113.823 244.46 113.747C245.955 113.197 247.413 112.59 248.851 111.927C249.741 111.51 250.971 111.851 251.387 112.799C251.785 113.728 251.482 114.884 250.517 115.339C247.451 116.78 244.252 117.936 240.978 118.789C240.013 119.036 238.896 118.277 238.745 117.292C238.574 116.211 239.199 115.32 240.221 115.055Z" fill="#651811"/>
<path d="M237.874 152.684C238.48 151.812 239.634 151.66 240.505 152.191C242.398 153.366 243.06 153.252 244.574 152.475C246.429 151.508 247.773 149.347 248.019 147.395C248.246 145.442 247.564 143.528 246.221 142.409C244.782 141.215 242.644 140.931 241.167 141.973C240.335 142.561 239.218 142.618 238.499 141.784C237.893 141.063 237.855 139.698 238.688 139.111C240.865 137.594 243.609 137.139 246.145 138.068C248.454 138.902 250.327 140.855 251.198 143.129C253.129 148.248 250.403 154.826 244.99 156.342C242.152 157.138 241.016 156.968 238.366 155.337C237.496 154.788 237.306 153.499 237.874 152.684Z" fill="#651811"/>
<path d="M242.209 143.395C242.531 142.959 243.08 142.883 243.534 143.148C244.915 144.001 245.9 145.518 246.108 147.129C246.164 147.622 245.9 148.172 245.37 148.248C244.896 148.324 244.329 148.02 244.253 147.508C244.215 147.243 244.158 146.997 244.083 146.731C244.007 146.523 243.931 146.314 243.818 146.125C243.78 146.068 243.761 146.011 243.723 145.954C243.704 145.935 243.685 145.878 243.666 145.859C243.647 145.84 243.628 145.821 243.628 145.802C243.591 145.745 243.553 145.689 243.496 145.632C243.42 145.537 243.326 145.442 243.25 145.347C243.212 145.309 243.155 145.253 243.117 145.215L243.099 145.196C243.061 145.177 243.004 145.12 242.985 145.101C242.928 145.063 242.871 145.006 242.815 144.968C242.701 144.892 242.588 144.817 242.474 144.741C242.02 144.456 241.906 143.774 242.209 143.395Z" fill="#651811"/>
<path d="M242.019 146.295C242.075 146.144 242.17 146.011 242.284 145.897C242.567 145.651 242.851 145.404 243.135 145.158C243.23 145.063 243.325 145.006 243.457 144.987C243.571 144.93 243.703 144.911 243.836 144.93C243.968 144.93 244.082 144.968 244.195 145.044C244.309 145.082 244.403 145.158 244.479 145.253C244.517 145.328 244.574 145.385 244.611 145.461C244.687 145.613 244.725 145.783 244.706 145.954C244.687 146.03 244.668 146.125 244.649 146.2C244.593 146.352 244.498 146.485 244.384 146.598C244.1 146.845 243.817 147.091 243.533 147.338C243.438 147.433 243.343 147.489 243.211 147.508C243.097 147.565 242.965 147.584 242.832 147.565C242.7 147.565 242.586 147.527 242.473 147.452C242.359 147.414 242.265 147.338 242.189 147.243C242.151 147.167 242.094 147.11 242.056 147.034C241.981 146.883 241.943 146.712 241.962 146.542C241.981 146.447 242 146.371 242.019 146.295Z" fill="#651811"/>
<path d="M251.349 143.016C251.33 142.921 251.33 142.826 251.292 142.712C251.197 142.295 251.046 141.878 250.876 141.48C250.705 141.101 250.44 140.741 250.213 140.4C250.081 140.21 249.891 140.021 249.702 139.869C250.989 138.788 251.5 136.116 251.86 134.675C252.39 132.457 252.56 130.106 252.371 127.832C252.276 126.675 253.222 125.727 254.188 125.595C254.377 121.955 253.658 118.315 252.068 114.998C251.008 112.799 254.415 111.131 255.475 113.33C258.086 118.808 258.635 124.912 257.178 130.808C257.026 131.395 256.591 131.774 256.08 131.926C255.948 133.443 255.702 134.94 255.304 136.438C254.623 139.035 253.639 141.765 251.368 143.3C251.368 143.224 251.368 143.11 251.349 143.016Z" fill="#651811"/>
<path d="M240.656 119.813C241.753 119.889 242.397 120.818 242.397 121.841C242.435 127.775 242.245 133.708 241.81 139.641C241.64 142.068 237.855 141.802 238.044 139.357C238.479 133.443 238.669 127.49 238.631 121.557C238.612 120.552 239.691 119.756 240.656 119.813Z" fill="#651811"/>
<path d="M233.407 161.783C234.088 161.252 234.732 160.702 235.337 160.077C235.47 159.925 235.621 159.792 235.754 159.641C235.829 159.546 235.905 159.47 235.981 159.375C236.265 159.053 236.53 158.712 236.776 158.351C237.268 157.669 237.684 156.949 238.1 156.209C238.138 156.115 238.176 156.039 238.233 155.944C238.327 155.754 238.422 155.546 238.498 155.356C238.668 154.939 238.838 154.522 238.99 154.086C239.312 153.157 240.466 152.551 241.412 152.93C242.378 153.328 242.908 154.352 242.567 155.356C241.318 159.015 238.971 162.294 235.905 164.645C235.11 165.252 233.899 165.29 233.236 164.455C232.593 163.697 232.555 162.427 233.407 161.783Z" fill="#651811"/>
<path d="M232.612 165.536C232.366 165.593 232.934 165.46 232.915 165.46C233.085 165.422 233.236 165.384 233.407 165.328C233.766 165.233 234.126 165.119 234.467 164.986C234.826 164.873 235.167 164.721 235.508 164.588C235.659 164.531 235.81 164.456 235.981 164.38C235.981 164.38 236.227 164.266 236.302 164.228C237.589 163.584 238.801 162.749 239.898 161.821C240.693 161.119 241.829 159.849 242.605 158.788C242.832 158.484 243.305 157.688 243.608 157.119C243.948 156.456 244.251 155.773 244.516 155.072C244.876 154.105 246.201 153.802 247.052 154.219C248.036 154.712 248.264 155.792 247.904 156.759C245.463 163.242 239.595 167.944 232.896 169.308C231.893 169.517 230.927 168.493 230.871 167.564C230.776 166.427 231.609 165.745 232.612 165.536Z" fill="#651811"/>
<path d="M252.655 111.32C252.901 110.865 253.261 110.581 253.734 110.373C255.381 109.652 257.084 109.159 258.844 108.837C259.298 108.761 259.904 109.008 260.245 109.311C260.585 109.614 260.869 110.126 260.888 110.6C260.907 111.093 260.774 111.624 260.415 112.003C260.301 112.117 260.169 112.211 260.055 112.325C259.771 112.515 259.469 112.609 259.147 112.647C259.128 112.647 259.109 112.647 259.109 112.647C257.708 112.951 256.327 113.387 255.002 113.974C254.567 114.164 253.942 114.088 253.526 113.88C253.109 113.671 252.712 113.254 252.58 112.799C252.409 112.306 252.409 111.756 252.655 111.32Z" fill="#651811"/>
<path d="M251.708 108.477C252.03 108.249 252.333 108.022 252.617 107.757C253.222 107.207 253.771 106.581 254.263 105.918C254.528 105.558 255.115 105.311 255.55 105.273C256.023 105.235 256.591 105.406 256.951 105.747C257.291 106.088 257.575 106.524 257.594 107.036L257.556 107.548C257.481 107.889 257.348 108.174 257.121 108.439C256.232 109.69 255.096 110.752 253.828 111.624C253.431 111.889 252.882 112.003 252.409 111.908C251.954 111.813 251.443 111.51 251.197 111.112C250.951 110.695 250.8 110.183 250.913 109.69C251.027 109.197 251.292 108.761 251.708 108.477Z" fill="#651811"/>
<path d="M248.813 109.842C248.946 109.501 249.059 109.159 249.192 108.818C249.665 107.396 250.044 105.956 250.327 104.496C250.517 103.529 251.558 102.752 252.542 102.998C253.545 103.245 254.226 104.174 254.037 105.216C253.621 107.377 252.996 109.482 252.201 111.529C252.031 111.946 251.539 112.325 251.122 112.477C250.687 112.628 250.081 112.609 249.646 112.382C249.23 112.154 248.851 111.775 248.7 111.301C248.548 110.79 248.605 110.335 248.813 109.842Z" fill="#651811"/>
<path d="M204.545 151.584C206.362 153.195 208.614 154.257 211.056 154.522C212.154 154.655 213.327 154.541 214.33 154.029C215.409 153.461 216.298 152.532 217.188 151.717C217.566 151.376 218.115 151.281 218.532 151.641C218.891 151.944 218.986 152.627 218.607 152.987C217.566 153.935 216.525 154.996 215.276 155.679C213.989 156.361 212.589 156.551 211.15 156.456C208.255 156.247 205.473 154.939 203.296 153.025C202.369 152.191 203.618 150.769 204.545 151.584Z" fill="#651811"/>
<path d="M250.289 192.303C244.252 187.886 237.154 184.929 229.754 183.772C228.751 183.621 227.71 184.038 227.427 185.099C227.18 185.99 227.729 187.279 228.751 187.431C235.867 188.549 242.567 191.317 248.378 195.582C249.21 196.189 250.497 195.715 250.97 194.9C251.519 193.952 251.103 192.909 250.289 192.303Z" fill="#651811"/>
<path d="M292.135 234.538C291.851 231.448 291.926 227.922 288.728 226.424C282.463 223.505 274.231 224.453 267.569 224.851C252.466 225.723 233.578 226.007 218.456 225.477C211.188 225.23 200.117 224.377 192.849 224.396C187.02 224.415 178.92 226.538 178.182 233.457C178.182 233.514 178.2 233.571 178.182 233.647C176.686 242.12 176.062 250.708 176.327 259.314C176.44 263.143 176.365 267.351 177.595 271.01C178.882 274.801 182.099 276.451 185.676 277.664C197.865 281.834 214.765 279.901 227.484 280.792C227.597 280.602 227.73 280.45 227.862 280.28C228.638 280.621 229.528 280.716 230.417 280.526C232.442 280.071 234.524 280.204 236.568 280.223C238.953 280.261 241.318 280.166 243.684 279.939C248.51 279.503 253.318 278.65 258.087 277.797C258.73 277.683 259.26 277.342 259.696 276.906C263.689 276.697 269.14 276.47 272.149 276.109C275.972 275.654 279.795 274.972 283.485 273.835C286.495 272.925 290.053 272.015 291.056 268.659C292.172 264.963 292.191 260.679 292.418 256.831C292.627 253.418 292.721 250.006 292.702 246.594C292.702 242.594 292.494 238.557 292.135 234.538Z" fill="#F0867B"/>
<path d="M295.787 233.135C295.484 230.026 295.2 226.747 292.721 224.51C290.336 222.368 286.722 221.704 283.656 221.268C279.795 220.7 275.915 220.662 272.035 220.813C255.399 221.477 235.111 222.254 218.456 221.685C213.781 221.515 209.106 221.287 204.432 220.984C200.268 220.718 192.3 220.339 188.155 220.946C181.342 221.951 174.756 226.557 174.377 233.95C172.939 242.632 172.277 251.428 172.617 260.224C172.901 267.674 173.166 273.91 180.509 278.081C186.585 281.531 201.517 281.834 212.683 281.834C223.339 281.834 234.789 281.455 234.789 281.398C243.684 280.83 271.127 280.356 278.262 279.029C284.394 277.891 293.043 276.337 294.841 269.323C295.787 265.645 295.92 261.57 296.185 257.797C296.45 253.779 296.563 249.741 296.506 245.703C296.45 241.495 296.203 237.305 295.787 233.135ZM292.456 256.869C292.21 260.698 292.21 265.001 291.093 268.697C290.09 272.053 286.532 272.963 283.523 273.873C279.833 274.991 276.01 275.692 272.186 276.147C268.439 276.602 260.888 276.849 257.121 277.095C255.096 277.228 234.883 277.588 232.858 277.759C232.158 277.815 231.401 277.853 230.663 277.929C230.663 277.929 230.663 277.948 230.682 277.948C217.888 277.834 196.275 279.749 185.544 276.071C181.967 274.839 179.222 273.74 177.935 269.93C176.705 266.271 176.497 263.143 176.383 259.314C176.119 250.708 176.762 242.12 178.238 233.647C178.257 233.571 178.238 233.533 178.238 233.457C178.976 226.538 187.077 224.415 192.906 224.396C200.173 224.377 211.245 225.211 218.513 225.477C233.634 225.988 252.522 225.723 267.625 224.851C274.287 224.453 282.52 223.505 288.785 226.424C291.983 227.922 291.907 231.448 292.191 234.538C292.551 238.557 292.74 242.594 292.778 246.613C292.759 250.044 292.664 253.456 292.456 256.869Z" fill="#651811"/>
<path d="M234.241 257.475C234.184 252.091 234.014 246.708 233.711 241.324C233.578 238.955 233.938 235.505 232.5 233.495C231.061 231.486 228.355 231.618 226.178 231.467C222.128 231.201 216.526 230.386 213.346 233.666C211.719 235.334 211.302 237.609 211.208 239.902C211.113 242.499 211.151 245.134 211.189 247.731C211.265 253.779 211.473 259.883 212.154 265.892C212.324 267.446 212.835 268.716 214.255 269.437C215.561 270.1 217.264 269.911 218.703 269.873C219.668 270.081 220.633 270.195 221.504 270.29C223.926 270.574 226.424 270.366 228.79 269.778C231.137 269.19 233.332 268.072 233.995 265.494C234.638 262.991 234.26 260.034 234.241 257.475Z" fill="white"/>
<path d="M260.528 257.418C260.471 252.035 260.301 246.651 259.998 241.267C259.865 238.898 260.225 235.448 258.787 233.438C257.348 231.429 254.642 231.543 252.465 231.41C248.415 231.145 242.813 230.329 239.634 233.609C238.006 235.277 237.59 237.552 237.495 239.846C237.4 242.443 237.438 245.078 237.476 247.675C237.552 253.722 237.76 259.826 238.441 265.835C238.612 267.389 239.123 268.66 240.542 269.38C241.848 270.043 243.551 269.854 244.99 269.816C245.955 270.024 246.92 270.138 247.791 270.233C250.213 270.517 252.711 270.309 255.077 269.721C257.424 269.133 259.619 268.015 260.282 265.437C260.925 262.916 260.547 259.977 260.528 257.418Z" fill="white"/>
<path d="M286.892 257.001C286.835 251.618 286.665 246.234 286.362 240.85C286.23 238.481 286.589 235.031 285.151 233.021C283.712 231.012 281.006 231.145 278.83 230.993C274.779 230.727 269.177 229.912 265.998 233.192C264.37 234.86 263.954 237.135 263.859 239.429C263.765 242.026 263.802 244.66 263.84 247.258C263.916 253.305 264.124 259.409 264.805 265.418C264.976 266.972 265.487 268.242 266.906 268.963C268.212 269.626 269.915 269.437 271.354 269.399C272.319 269.607 273.284 269.721 274.155 269.816C276.577 270.1 279.076 269.892 281.441 269.304C283.788 268.716 285.984 267.598 286.646 265.02C287.289 262.518 286.911 259.579 286.892 257.001Z" fill="white"/>
<path d="M207.952 257.551C207.895 252.167 207.724 246.784 207.422 241.4C207.289 239.03 207.649 235.58 206.21 233.571C204.772 231.562 202.066 231.694 199.889 231.543C195.839 231.277 190.237 230.462 187.057 233.742C185.43 235.41 185.013 237.685 184.919 239.978C184.824 242.575 184.862 245.21 184.9 247.807C184.976 253.854 185.184 259.958 185.865 265.968C186.035 267.522 186.546 268.792 187.966 269.513C189.272 270.176 190.975 269.986 192.413 269.949C193.379 270.157 194.344 270.271 195.214 270.366C197.637 270.65 200.135 270.441 202.501 269.854C204.848 269.266 207.043 268.148 207.706 265.57C208.349 263.048 207.971 260.11 207.952 257.551Z" fill="white"/>
<path d="M266.452 209.61C266.168 206.956 266.49 202.539 263.064 201.459C261.153 200.852 258.787 200.871 256.781 200.681C254.623 200.473 252.466 200.302 250.308 200.17C245.52 199.866 240.732 199.734 235.924 199.753C231.136 199.771 226.329 199.98 221.541 200.34C217.831 200.625 213.27 200.53 209.826 201.932C206.438 203.335 205.643 206.387 205.094 209.42C204.337 213.572 204.091 217.761 204.337 221.97C204.451 223.979 207.649 224.112 208.047 222.406C226.329 225.723 245.085 221.97 263.556 223.107C264.011 224.908 267.304 224.794 267.247 222.747C267.171 218.349 266.925 213.97 266.452 209.61Z" fill="#651811"/>
<path d="M228.374 204.32C227.295 204.036 226.424 204.7 226.065 205.666C225.194 207.979 224.21 210.254 223.112 212.491C222.563 213.609 221.977 214.728 221.371 215.827C221.106 216.301 220.841 216.756 220.576 217.23C220.349 216.813 220.122 216.377 219.895 215.96C219.308 214.86 218.759 213.761 218.211 212.642C217.132 210.443 216.148 208.207 215.239 205.913C214.861 204.965 213.952 204.302 212.892 204.605C211.984 204.87 211.208 205.989 211.586 206.955C213.328 211.315 215.334 215.581 217.605 219.713C218.248 220.869 219.005 222.159 220.482 222.215C222.015 222.272 222.696 221.078 223.377 219.922C224.513 217.988 225.573 216.017 226.557 214.007C227.73 211.6 228.771 209.135 229.717 206.633C230.077 205.685 229.282 204.567 228.374 204.32Z" fill="white"/>
<path d="M236.512 204.094C234.071 204.112 234.109 207.904 236.55 207.885C238.992 207.866 238.954 204.075 236.512 204.094Z" fill="white"/>
<path d="M235.774 209.705C234.752 209.762 233.881 210.558 233.9 211.619C233.938 214.69 233.843 217.761 233.616 220.832C233.541 221.818 234.563 222.766 235.528 222.709C236.626 222.652 237.326 221.856 237.401 220.794C237.629 217.723 237.723 214.652 237.685 211.581C237.666 210.596 236.796 209.648 235.774 209.705Z" fill="white"/>
<path d="M258.087 217.249C254.756 217.666 251.406 217.856 248.056 217.856C248.113 217.799 248.151 217.742 248.208 217.685C249.268 216.605 250.328 215.524 251.387 214.444C253.526 212.264 255.665 210.065 257.803 207.885C259.015 206.653 258.03 204.757 256.441 204.662C252.334 204.397 248.227 204.169 244.12 203.999C243.098 203.961 242.227 204.928 242.246 205.913C242.265 206.975 243.136 207.752 244.158 207.79C246.826 207.904 249.514 208.074 252.182 208.226C250.952 209.477 249.722 210.728 248.511 211.979C246.429 214.103 244.101 216.169 242.511 218.709C241.697 219.998 242.814 221.477 244.177 221.553C248.851 221.799 253.526 221.628 258.163 221.041C259.185 220.908 260.055 220.245 260.037 219.126C259.98 218.197 259.109 217.117 258.087 217.249Z" fill="white"/>
<path d="M197.676 239.334C195.745 242.898 193.228 246.006 190.181 248.66C188.345 250.272 191.033 252.945 192.85 251.333C194.212 250.139 195.462 248.831 196.616 247.466C196.086 252.357 195.556 257.248 195.007 262.138C194.894 263.162 195.954 264.034 196.9 264.034C198.017 264.034 198.679 263.162 198.793 262.138C199.587 254.859 200.382 247.58 201.177 240.282C201.423 238.386 198.528 237.779 197.676 239.334Z" fill="#651811"/>
<path d="M229.527 244.073C230.019 241.874 229.47 239.353 227.596 237.969C225.723 236.585 223.035 237.021 221.199 238.272C216.96 241.135 216.809 246.537 219.458 250.461C219.193 250.727 218.928 250.992 218.701 251.295C216.071 254.537 212.872 260.755 217.149 263.996C220.821 266.802 226.31 264.792 228.126 260.774C229.868 256.906 228.486 252.641 225.439 250.063C227.256 248.414 228.94 246.67 229.527 244.073ZM224.833 255.579C225.401 257.342 225.023 259.503 223.49 260.679C222.354 261.551 219.894 262.082 219.004 260.565C218.474 259.674 219.023 258.347 219.364 257.475C219.761 256.432 220.31 255.447 220.935 254.537C221.408 253.854 221.975 253.248 222.562 252.66C223.584 253.381 224.436 254.328 224.833 255.579ZM223.736 246.518C223.244 246.992 222.751 247.447 222.24 247.883C221.389 246.48 221.067 244.679 221.767 243.163C222.24 242.158 224.568 239.789 225.609 241.305C226.783 243.011 224.89 245.381 223.736 246.518Z" fill="#651811"/>
<path d="M253.866 239.239C253.714 239.125 253.525 239.068 253.355 239.03C253.014 238.689 252.522 238.462 251.992 238.405C247.299 237.931 244.668 242.405 243.4 246.234C242.643 248.509 242.189 250.859 241.98 253.248C241.791 255.314 241.791 257.513 242.491 259.485C243.854 263.314 248.207 266.214 252.087 263.826C255.929 261.475 256.553 256.016 256.97 251.94C257.386 247.618 257.67 242.196 253.866 239.239ZM253.052 252.926C252.749 255.049 251.822 262.347 248.112 260.679C244.706 259.162 245.538 253.722 246.087 250.859C246.636 247.997 247.847 242.139 251.652 242.196C251.746 242.31 251.841 242.424 251.973 242.518C253.052 243.353 253.26 245.134 253.336 246.386C253.45 248.566 253.336 250.784 253.052 252.926Z" fill="#651811"/>
<path d="M280.987 252.546C280.627 250.158 278.943 248.092 276.577 247.466C275.915 247.277 275.196 247.22 274.495 247.277C275.12 245.286 275.763 243.277 276.388 241.286C277.126 238.955 273.473 237.95 272.735 240.282C271.675 243.599 270.616 246.935 269.575 250.253C269.026 251.978 271.524 253.589 272.735 252.091C274.287 250.196 277.24 251.049 277.296 253.532C277.372 257.058 272.546 257.077 269.953 256.982C267.512 256.906 267.512 260.698 269.953 260.774C272.716 260.868 275.688 260.793 278.053 259.181C280.268 257.665 281.403 255.219 280.987 252.546Z" fill="#651811"/>
<path d="M282.217 238.386L275.442 238.955C274.458 239.03 273.492 239.77 273.549 240.85C273.587 241.798 274.382 242.841 275.442 242.746L282.217 242.177C283.202 242.101 284.167 241.362 284.11 240.282C284.053 239.315 283.258 238.291 282.217 238.386Z" fill="#651811"/>
<path d="M177.576 228.017C177.292 223.638 173.98 223.372 170.384 223.543C166.391 223.733 162.416 223.922 158.423 224.093C149.036 224.529 139.667 224.965 130.28 225.401C129.599 225.439 129.05 225.647 128.634 225.988C127.422 225.856 126.192 226.443 125.889 228.017C124.659 234.557 124.148 241.229 124.565 247.883C124.943 254.082 125.738 260.83 128.274 266.555C130.375 271.294 134.33 274.214 138.948 276.28C143.339 278.232 148.26 279.616 151.496 283.37C153.048 285.171 155.508 283.9 156.247 282.119C159.066 275.313 167.053 274.915 171.785 270.081C176.497 265.247 177.462 258.176 177.803 251.731C178.201 243.902 178.087 235.827 177.576 228.017Z" fill="#9BC76B"/>
<path d="M161.073 248.016C160.789 246.537 159.748 245.248 158.272 244.831C157.079 244.49 155.83 244.66 154.638 244.812C152.991 245.021 151.383 245.324 149.793 245.798C149.377 245.153 148.752 244.698 147.881 244.566C146.538 244.376 145.099 245.229 144.759 246.594C144.721 246.727 144.702 246.859 144.683 247.011C143.604 247.409 142.923 248.395 142.809 249.646C142.582 252.11 142.734 254.537 143.131 256.963C143.472 259.124 144.153 261.266 145.629 262.935C147.314 264.849 149.812 265.475 152.253 265.077C154.676 264.698 156.625 263.162 158.045 261.228C159.35 259.484 160.164 257.323 160.656 255.219C161.205 252.926 161.508 250.347 161.073 248.016Z" fill="#FBBE49"/>
<path d="M177.993 225.192C177.595 225.041 177.179 224.927 176.762 224.794C176.232 224.377 175.551 224.169 174.87 224.169C167.659 222.159 159.729 222.254 152.348 222.311C143.264 222.387 134.217 223.183 125.246 224.548C121.65 225.097 123.183 230.481 126.76 229.931C135.22 228.642 143.775 227.96 152.348 227.884C158.84 227.827 165.71 227.751 172.107 229.249C172.163 234.462 172.239 239.694 172.296 244.907C172.353 250.215 172.637 255.826 170.479 260.812C166.599 269.778 152.443 271.124 152.651 282.441C152.689 284.469 154.506 285.341 156.076 285.095C156.493 282.536 157.855 280.185 159.71 278.346C161.622 275.73 165.142 273.967 167.659 272.261C171.898 269.38 174.889 265.759 176.497 260.906C178.201 255.769 178.068 250.253 177.993 244.926C177.936 240.206 177.879 235.467 177.822 230.727C180.207 230.405 180.888 226.292 177.993 225.192Z" fill="#D9E181"/>
<path d="M139.044 231.391C138.344 230.69 137.057 230.633 136.375 231.391C132.798 235.258 129.562 239.485 126.78 243.959C126.25 244.793 126.572 246.082 127.461 246.556C128.389 247.049 129.486 246.784 130.054 245.874C132.723 241.59 135.637 237.779 139.063 234.064C139.744 233.325 139.782 232.13 139.044 231.391Z" fill="white"/>
<path d="M134.993 244.85C134.027 244.338 133.005 244.66 132.4 245.532C130.469 248.3 128.747 251.219 127.29 254.271C126.854 255.162 127.025 256.357 127.971 256.869C128.823 257.323 130.091 257.134 130.564 256.186C132.04 253.134 133.744 250.215 135.674 247.447C136.242 246.632 135.844 245.305 134.993 244.85Z" fill="white"/>
<path d="M135.144 257.551C135.087 257.304 134.973 257.096 134.803 256.906C134.671 256.698 134.5 256.546 134.273 256.414C133.838 256.186 133.308 256.072 132.816 256.224C132.362 256.376 131.926 256.66 131.68 257.096C131.321 257.74 130.961 258.404 130.62 259.048C130.488 259.257 130.412 259.503 130.393 259.75C130.337 259.996 130.356 260.262 130.431 260.508C130.488 260.755 130.602 260.963 130.772 261.153C130.904 261.361 131.075 261.513 131.302 261.646C131.737 261.873 132.267 261.987 132.759 261.835C133.213 261.683 133.649 261.399 133.895 260.963C134.254 260.319 134.614 259.655 134.955 259.011C135.087 258.802 135.163 258.556 135.182 258.309C135.238 258.044 135.219 257.797 135.144 257.551Z" fill="white"/>
<path d="M175.798 231.732C175.003 231.012 173.905 231.031 173.129 231.732C170.99 233.628 169.117 235.77 167.432 238.083C167.167 238.462 167.129 239.106 167.243 239.542C167.357 239.978 167.697 240.452 168.114 240.68C168.549 240.907 169.079 241.021 169.571 240.869C170.063 240.718 170.404 240.414 170.706 239.997C170.839 239.808 170.99 239.618 171.142 239.429C172.542 237.628 174.113 235.94 175.816 234.405C176.536 233.742 176.517 232.396 175.798 231.732Z" fill="white"/>
<path d="M174.264 243.978C174.264 243.504 174.056 242.954 173.715 242.632C173.355 242.291 172.882 242.063 172.371 242.082C171.86 242.101 171.406 242.272 171.027 242.632C169.778 243.826 168.7 245.248 167.924 246.765C167.697 247.22 167.602 247.731 167.734 248.224C167.848 248.66 168.189 249.134 168.605 249.362C169.04 249.589 169.57 249.703 170.062 249.551C170.516 249.4 170.971 249.115 171.198 248.679C171.557 247.978 171.993 247.314 172.466 246.689C172.863 246.196 173.261 245.741 173.715 245.305C174.056 244.983 174.264 244.452 174.264 243.978Z" fill="white"/>
<path d="M179.885 223.297C169.703 221.742 163.022 221.609 152.745 221.609C142.809 221.609 132.816 221.837 123.089 224.131C120.723 224.68 121.726 228.339 124.092 227.789C133.498 225.571 143.131 225.42 152.745 225.401C162.663 225.401 169.041 225.439 178.863 226.955C181.267 227.315 182.289 223.657 179.885 223.297Z" fill="#651811"/>
<path d="M158.273 237.154C157.932 234.955 157.043 232.813 155.15 231.524C153.22 230.197 150.627 230.443 148.753 231.751C146.842 233.097 145.706 235.22 144.892 237.381C144.041 239.675 143.719 242.196 143.984 244.642C144.098 245.627 144.779 246.594 145.877 246.537C146.804 246.499 147.883 245.703 147.769 244.642C147.675 243.77 147.656 242.917 147.712 242.045C147.731 241.836 147.75 241.627 147.769 241.419C147.769 241.4 147.769 241.381 147.769 241.381C147.788 241.286 147.807 241.192 147.807 241.116C147.883 240.642 147.996 240.168 148.129 239.694C148.242 239.296 148.375 238.898 148.507 238.5C148.545 238.386 148.64 238.14 148.678 238.083C148.697 238.045 148.772 237.893 148.753 237.893C148.81 237.76 148.867 237.647 148.924 237.514C149.094 237.154 149.302 236.794 149.51 236.452C149.756 236.054 149.889 235.865 150.097 235.618C150.23 235.467 150.362 235.334 150.513 235.182C150.589 235.106 150.665 235.05 150.741 234.993C150.741 234.993 150.741 234.993 150.759 234.993C150.911 234.879 151.081 234.784 151.252 234.689C151.308 234.652 151.384 234.633 151.441 234.595C151.479 234.576 151.535 234.557 151.592 234.557C151.706 234.519 151.838 234.481 151.952 234.462C151.952 234.462 152.027 234.443 152.065 234.443C152.122 234.443 152.179 234.443 152.198 234.443C152.292 234.443 152.368 234.443 152.463 234.443C152.538 234.462 152.633 234.481 152.709 234.5C152.766 234.519 152.822 234.538 152.86 234.557C152.879 234.576 152.917 234.595 152.974 234.614C153.031 234.651 153.22 234.784 153.239 234.784C153.352 234.879 153.447 234.974 153.542 235.087C153.598 235.144 153.617 235.163 153.636 235.163C153.636 235.182 153.655 235.201 153.693 235.258C153.807 235.429 153.92 235.599 154.015 235.789C154.053 235.865 154.09 235.941 154.128 236.035C154.128 236.054 154.128 236.054 154.147 236.092C154.223 236.282 154.28 236.49 154.336 236.68C154.45 237.116 154.545 237.552 154.62 237.988C154.639 238.083 154.658 238.196 154.658 238.291C154.658 238.329 154.658 238.31 154.658 238.329C154.658 238.348 154.658 238.348 154.658 238.405C154.696 238.708 154.734 239.011 154.753 239.315C154.81 239.846 154.847 240.395 154.866 240.926C154.923 242.045 154.942 243.163 154.904 244.262C154.866 245.248 155.794 246.196 156.797 246.158C157.857 246.12 158.652 245.324 158.689 244.262C158.784 241.874 158.633 239.504 158.273 237.154Z" fill="#651811"/>
<path d="M161.622 243.125C155.017 243.883 148.374 244.149 141.75 243.94C139.309 243.864 139.309 247.656 141.75 247.731C148.393 247.94 155.036 247.675 161.622 246.916C162.644 246.803 163.515 246.12 163.515 245.021C163.515 244.092 162.644 243.011 161.622 243.125Z" fill="#651811"/>
<path d="M163.344 246.423C163.212 245.4 162.568 244.528 161.452 244.528C160.524 244.528 159.427 245.4 159.559 246.423C160.222 251.466 160.657 258.65 155.661 261.683C153.806 262.821 151.497 263.333 149.339 262.935C148.014 262.707 146.841 262.195 145.989 261.115C145.251 260.167 144.797 258.973 144.437 257.835C143.359 254.404 142.942 250.84 143.094 247.258C143.188 244.812 139.403 244.831 139.309 247.258C139.157 251.106 139.611 255.011 140.747 258.688C141.769 262.044 143.529 265.02 146.974 266.233C152.897 268.299 159.995 265.134 162.36 259.352C164.007 255.409 163.893 250.613 163.344 246.423Z" fill="#651811"/>
<path d="M153.825 252.546C153.806 252.357 153.787 252.148 153.749 251.959C153.73 251.883 153.711 251.826 153.692 251.75C153.616 251.542 153.522 251.314 153.427 251.106C153.389 251.049 153.37 250.992 153.332 250.935C153.238 250.784 153.049 250.556 152.992 250.499C152.916 250.423 152.84 250.366 152.746 250.291C152.67 250.234 152.613 250.177 152.519 250.12C152.443 250.082 152.14 249.949 152.064 249.93C152.046 249.93 152.027 249.912 151.989 249.912C151.629 249.836 151.232 249.798 150.872 249.93C150.494 250.063 150.248 250.196 149.945 250.48C149.869 250.556 149.812 250.651 149.756 250.708C149.699 250.784 149.623 250.878 149.566 250.954C149.472 251.144 149.377 251.333 149.32 251.542C149.32 251.561 149.301 251.599 149.301 251.618C149.263 251.769 149.245 251.978 149.226 252.148C149.226 252.167 149.226 252.186 149.226 252.205C149.226 252.243 149.226 252.262 149.226 252.3C149.245 252.509 149.263 252.698 149.301 252.907C149.32 252.982 149.339 253.058 149.358 253.134C149.434 253.362 149.528 253.57 149.623 253.779C149.661 253.854 149.699 253.93 149.756 253.987C149.793 254.063 149.85 254.082 149.907 254.139C149.926 254.158 149.926 254.196 149.945 254.215C150.115 254.499 150.342 254.726 150.626 254.897C150.778 254.954 150.929 255.03 151.08 255.087C151.421 255.181 151.743 255.181 152.083 255.087C152.273 255.011 152.481 254.954 152.67 254.821C153.011 254.594 153.086 254.518 153.295 254.234C153.37 254.12 153.465 254.025 153.522 253.911C153.597 253.76 153.711 253.513 153.768 253.305C153.806 253.115 153.825 252.926 153.843 252.736C153.843 252.717 153.843 252.679 153.843 252.66C153.843 252.622 153.844 252.584 153.825 252.546Z" fill="#651811"/>
<path d="M154.866 255.371C154.79 255.144 154.658 254.935 154.468 254.764C154.071 254.272 153.655 253.779 153.257 253.286C153.087 253.096 152.879 252.964 152.651 252.888C152.424 252.774 152.178 252.717 151.913 252.717C151.894 252.717 151.876 252.736 151.857 252.736C151.516 252.622 151.137 252.565 150.797 252.679C150.361 252.831 149.869 253.115 149.661 253.551C149.377 254.158 149.093 254.764 148.828 255.371C148.696 255.674 148.563 255.978 148.563 256.319L148.639 256.831C148.696 257.077 148.81 257.286 148.98 257.475C149.056 257.627 149.169 257.722 149.321 257.816C149.434 257.93 149.585 258.006 149.737 258.063C149.888 258.158 150.04 258.196 150.21 258.196C150.456 258.252 150.721 258.233 150.967 258.158C151.156 258.12 151.346 258.082 151.535 258.044C152.065 257.987 152.595 257.949 153.125 257.987L153.636 257.911C153.787 257.854 153.938 257.778 154.09 257.722C154.222 257.627 154.336 257.532 154.468 257.418C154.658 257.248 154.79 257.039 154.866 256.812C154.96 256.66 154.998 256.508 154.998 256.338C155.036 256.167 155.036 255.997 154.998 255.826C154.998 255.674 154.96 255.523 154.866 255.371Z" fill="#651811"/>
<path d="M155.282 283.237C152.14 278.555 147.863 276.318 142.507 274.972C139.801 274.29 136.943 273.721 134.615 272.11C132.325 270.536 130.659 268.167 129.543 265.664C127.007 260.034 126.647 253.286 126.212 247.201C125.72 240.357 125.739 233.514 126.212 226.671C126.382 224.244 122.597 224.244 122.427 226.671C121.953 233.666 121.935 240.68 122.464 247.675C122.938 253.911 123.411 260.622 125.795 266.479C127.726 271.2 131.057 275.105 135.864 277C138.551 278.062 141.428 278.498 144.172 279.37C147.485 280.413 150.077 282.27 152.027 285.171C153.37 287.18 156.645 285.284 155.282 283.237Z" fill="#651811"/>
<path d="M177.028 226.405C176.744 232.547 176.46 238.689 176.176 244.831C175.911 250.802 176.081 257.096 174.245 262.859C172.466 268.432 168.681 271.427 163.685 274.062C159.464 276.261 155.111 278.744 153.124 283.294C152.159 285.512 155.414 287.445 156.398 285.208C158.65 280.09 164.177 278.346 168.643 275.673C173.223 272.925 176.289 268.963 177.917 263.863C179.715 258.214 179.639 252.072 179.904 246.215L180.813 226.405C180.926 223.96 177.141 223.979 177.028 226.405Z" fill="#651811"/>
<path d="M172.371 212.112C172.011 211.79 171.538 211.543 171.027 211.562C170.497 211.581 170.081 211.771 169.684 212.112C168.018 213.534 166.353 214.956 164.706 216.377C164.346 216.681 164.157 217.268 164.157 217.723C164.157 218.197 164.365 218.747 164.706 219.069C165.066 219.41 165.539 219.638 166.05 219.619C166.58 219.6 166.996 219.41 167.394 219.069L172.371 214.804C172.731 214.501 172.92 213.913 172.92 213.458C172.92 212.984 172.712 212.434 172.371 212.112Z" fill="#651811"/>
<path d="M194.515 208.112C190.635 208.378 186.774 208.927 182.97 209.799C182.005 210.027 181.343 211.183 181.645 212.131C181.967 213.136 182.932 213.686 183.973 213.458C185.752 213.06 187.55 212.719 189.348 212.434C189.556 212.397 189.765 212.378 189.992 212.34C190.011 212.34 190.011 212.34 190.029 212.34C190.162 212.321 190.313 212.302 190.446 212.283C190.881 212.226 191.298 212.188 191.733 212.131C192.66 212.036 193.588 211.96 194.515 211.885C195.499 211.828 196.464 211.07 196.408 209.989C196.351 209.041 195.575 208.055 194.515 208.112Z" fill="#651811"/>
<path d="M279.416 208.378H273.738C272.754 208.378 271.808 209.25 271.846 210.273C271.884 211.297 272.679 212.169 273.738 212.169H279.416C280.4 212.169 281.347 211.297 281.309 210.273C281.252 209.25 280.476 208.378 279.416 208.378Z" fill="#651811"/>
<path d="M297.037 212.131C296.942 211.998 296.847 211.866 296.734 211.752C296.507 211.525 296.223 211.354 295.901 211.259C294.709 210.785 293.535 210.311 292.343 209.837C291.908 209.667 291.264 209.799 290.886 210.027C290.488 210.254 290.11 210.709 290.015 211.164C289.902 211.657 289.921 212.188 290.204 212.624C290.299 212.757 290.394 212.87 290.507 213.003C290.734 213.231 291.018 213.401 291.34 213.496L294.898 214.918C295.333 215.088 295.977 214.956 296.355 214.728C296.753 214.501 297.131 214.046 297.226 213.591C297.339 213.117 297.321 212.567 297.037 212.131Z" fill="#651811"/>
<path d="M308.638 226.121C307.919 224.225 307.218 222.33 306.499 220.434C306.329 219.96 306.083 219.562 305.629 219.297C305.231 219.05 304.626 218.956 304.171 219.107C303.263 219.392 302.468 220.453 302.847 221.439C303.566 223.334 304.266 225.23 304.985 227.126C305.156 227.6 305.402 227.998 305.856 228.263C306.253 228.51 306.859 228.604 307.313 228.453C308.222 228.168 308.998 227.107 308.638 226.121Z" fill="#651811"/>
<path d="M311.837 240.718C311.78 240.282 311.326 239.789 310.966 239.58C310.568 239.334 309.963 239.239 309.509 239.391C309.054 239.542 308.6 239.827 308.373 240.263C308.127 240.737 308.108 241.191 308.184 241.722C308.184 241.76 308.184 241.779 308.203 241.798C308.203 241.817 308.203 241.817 308.203 241.836C308.222 242.007 308.241 242.196 308.259 242.367C308.297 242.67 308.316 242.973 308.354 243.296C308.411 243.94 308.449 244.585 308.468 245.21C308.506 246.499 308.487 247.769 308.392 249.058C308.316 250.044 309.319 250.992 310.285 250.954C311.363 250.897 312.102 250.12 312.177 249.058C312.385 246.272 312.234 243.485 311.837 240.718Z" fill="#651811"/>
<path d="M170.592 285.095L167.337 281.948C166.977 281.607 166.485 281.398 165.993 281.398C165.52 281.398 164.971 281.607 164.65 281.948C164.309 282.308 164.082 282.782 164.101 283.294C164.12 283.787 164.29 284.28 164.65 284.64C165.728 285.682 166.807 286.744 167.905 287.787C168.264 288.128 168.756 288.336 169.249 288.336C169.722 288.336 170.271 288.128 170.592 287.787C170.914 287.426 171.16 286.952 171.141 286.441C171.122 285.948 170.971 285.455 170.592 285.095Z" fill="#651811"/>
<path d="M189.082 290.763C188.685 290.403 188.268 290.27 187.738 290.213C187.701 290.213 187.644 290.194 187.606 290.194C187.587 290.194 187.587 290.194 187.549 290.194C187.417 290.175 187.265 290.156 187.133 290.137C186.811 290.08 186.489 290.023 186.168 289.967C185.581 289.853 184.975 289.72 184.389 289.587C183.158 289.284 181.966 288.924 180.774 288.507C179.846 288.166 178.654 288.886 178.446 289.834C178.2 290.895 178.768 291.805 179.771 292.166C182.345 293.094 185.013 293.682 187.738 294.023C188.193 294.08 188.779 293.777 189.082 293.474C189.404 293.151 189.65 292.601 189.631 292.128C189.631 291.616 189.461 291.104 189.082 290.763Z" fill="#651811"/>
<path d="M212.664 291.616C212.361 290.687 211.339 289.948 210.336 290.289C209.712 290.516 209.049 290.668 208.387 290.782C207.554 290.877 206.703 290.877 205.87 290.782C205.681 290.744 205.491 290.725 205.302 290.687C204.337 290.478 203.201 290.971 202.974 292.014C202.747 292.981 203.258 294.118 204.299 294.345C206.627 294.857 209.087 294.763 211.339 293.966C211.813 293.796 212.21 293.53 212.475 293.094C212.721 292.658 212.816 292.071 212.664 291.616Z" fill="#651811"/>
<path d="M227.881 291.009C225.629 290.858 223.377 290.725 221.144 290.573C220.16 290.516 219.213 291.483 219.251 292.469C219.308 293.549 220.084 294.289 221.144 294.365C223.396 294.516 225.648 294.649 227.881 294.801C228.866 294.857 229.812 293.891 229.774 292.905C229.736 291.824 228.96 291.085 227.881 291.009Z" fill="#651811"/>
<path d="M249.608 291.957C249.267 290.914 248.321 290.441 247.28 290.63C246.939 290.687 246.598 290.744 246.277 290.801C246.201 290.82 246.106 290.82 246.031 290.839C245.879 290.858 245.709 290.877 245.539 290.895C244.876 290.952 244.195 290.99 243.513 290.99C242.832 290.99 242.17 290.971 241.488 290.895C241.318 290.877 241.167 290.858 240.996 290.839C240.94 290.839 240.864 290.82 240.788 290.82C240.429 290.782 240.088 290.706 239.728 290.649C238.763 290.459 237.646 290.914 237.4 291.976C237.192 292.905 237.684 294.118 238.725 294.308C241.905 294.895 245.084 294.895 248.245 294.308C249.267 294.099 249.91 292.867 249.608 291.957Z" fill="#651811"/>
<path d="M274.117 288.715C273.814 287.806 272.792 287.028 271.789 287.388C268.155 288.696 264.711 289.303 260.944 289.303C259.96 289.303 259.014 290.175 259.052 291.199C259.09 292.222 259.885 293.094 260.944 293.094C264.976 293.094 269.007 292.412 272.792 291.047C273.719 290.725 274.439 289.758 274.117 288.715Z" fill="#651811"/>
<path d="M292.23 287.275C291.927 286.308 290.924 285.645 289.902 285.948C289.258 286.137 288.615 286.289 287.971 286.422C287.82 286.441 287.669 286.479 287.517 286.498C287.442 286.516 287.385 286.517 287.309 286.535C286.987 286.573 286.666 286.611 286.344 286.63C285.681 286.668 285.019 286.687 284.357 286.668C284.054 286.649 283.751 286.63 283.448 286.611C283.297 286.592 283.145 286.592 282.994 286.573C282.937 286.573 282.861 286.554 282.805 286.554C282.786 286.554 282.786 286.554 282.748 286.535C282.218 286.46 281.764 286.441 281.291 286.725C280.893 286.953 280.515 287.407 280.42 287.862C280.212 288.772 280.704 290.042 281.745 290.194C284.83 290.649 287.934 290.516 290.924 289.625C291.851 289.322 292.552 288.26 292.23 287.275Z" fill="#651811"/>
<path d="M305.553 276.583C304.664 276.109 303.471 276.337 302.96 277.266C302.714 277.702 302.449 278.119 302.147 278.517C301.654 279.105 301.125 279.654 300.519 280.147C299.951 280.564 299.346 280.962 298.702 281.266C298.286 281.455 297.945 281.967 297.831 282.403C297.699 282.858 297.756 283.464 298.021 283.863C298.286 284.261 298.664 284.621 299.156 284.735C299.667 284.848 300.14 284.772 300.614 284.545C302.96 283.408 304.966 281.474 306.216 279.18C306.708 278.308 306.481 277.076 305.553 276.583Z" fill="#651811"/>
<path d="M311.041 258.916C309.962 258.973 309.205 259.75 309.148 260.811C309.129 261.191 309.092 261.551 309.035 261.93C308.808 263.56 308.372 265.171 307.767 266.707C307.596 267.124 307.729 267.787 307.956 268.167C308.183 268.565 308.637 268.944 309.092 269.039C309.584 269.152 310.114 269.133 310.549 268.849C310.984 268.565 311.23 268.205 311.42 267.712C312.309 265.513 312.782 263.181 312.934 260.811C312.99 259.807 312.025 258.859 311.041 258.916Z" fill="#651811"/>
<path d="M150.436 206.691C138.702 193.573 131.094 176.588 129.788 157.669C126.684 112.496 160.732 73.3504 205.833 70.2415C250.933 67.1327 290.015 101.235 293.119 146.409C294.444 165.631 288.652 184.284 278.395 199.203" stroke="#651811" stroke-width="2" stroke-miterlimit="10" stroke-linecap="round" stroke-linejoin="round"/>
<path d="M349.651 81.6344C349.329 82.3737 349.481 83.0562 349.954 83.7007C352.282 86.8475 355.802 88.5156 359.511 89.4445C357.676 92.2311 356.692 95.5106 356.9 98.9038H356.938C356.938 99.0744 356.938 99.2261 356.938 99.3967C356.938 99.4536 356.975 99.4725 356.975 99.5294C356.994 100.098 357.24 100.648 357.789 100.989C358.584 101.482 359.947 101.33 360.401 100.401C362.767 95.5296 365.871 91.0748 369.675 87.2077C371.056 85.8049 369.845 83.7386 368.009 83.9471C365.303 84.2504 362.615 83.568 360.041 82.8097C357.184 81.9756 354.383 81.0278 351.43 80.516C350.711 80.4023 349.916 81.0278 349.651 81.6344Z" fill="white"/>
<path d="M308.657 101.046C312.802 104.041 317.571 105.785 322.568 106.221C319.559 109.576 317.571 113.69 316.72 118.239C316.398 119.983 318.745 120.836 319.843 119.832C332.315 108.325 344.446 98.9417 361.82 90.2975C363.334 89.5393 364.546 88.0038 363.486 87.3403C363.391 86.3356 362.218 86.6389 360.969 86.9802C343.822 91.7382 326.618 95.7191 309.395 97.5958C307.711 97.8043 307.332 100.098 308.657 101.046Z" fill="white"/>
<path d="M392.309 149.537C391.685 150.049 391.496 150.731 391.628 151.508C392.234 155.375 394.562 158.484 397.419 161.043C394.505 162.655 392.101 165.1 390.72 168.209L390.757 168.228C390.682 168.379 390.606 168.512 390.53 168.664C390.511 168.702 390.53 168.74 390.511 168.797C390.265 169.308 390.227 169.896 390.549 170.484C391.022 171.299 392.309 171.792 393.142 171.166C397.495 167.962 402.321 165.441 407.469 163.811C409.343 163.223 409.229 160.835 407.507 160.152C404.971 159.167 402.889 157.309 400.977 155.451C398.839 153.385 396.795 151.243 394.41 149.423C393.823 148.949 392.82 149.12 392.309 149.537Z" fill="white"/>
<path d="M347.001 147.679C349.291 152.266 352.698 156.02 356.918 158.731C352.698 160.285 349.026 163.034 346.168 166.654C345.071 168.057 346.755 169.896 348.193 169.517C364.583 165.138 379.667 162.465 399.066 162.882C400.77 162.92 402.549 162.124 401.905 161.043C402.284 160.095 401.11 159.83 399.842 159.546C382.468 155.792 365.359 151.319 349.253 144.968C347.663 144.362 346.282 146.219 347.001 147.679Z" fill="white"/>
<path d="M73.6719 81.6344C73.9936 82.3737 73.8422 83.0562 73.3691 83.7007C71.0412 86.8475 67.521 88.5156 63.8115 89.4445C65.6473 92.2311 66.6314 95.5106 66.4233 98.9038H66.3854C66.3854 99.0744 66.3854 99.2261 66.3854 99.3967C66.3854 99.4536 66.3476 99.4725 66.3476 99.5294C66.3286 100.098 66.0826 100.648 65.5337 100.989C64.7389 101.482 63.3762 101.33 62.922 100.401C60.5562 95.5296 57.4524 91.0748 53.6483 87.2077C52.2667 85.8049 53.4779 83.7386 55.3137 83.9471C58.0202 84.2504 60.7076 83.568 63.2816 82.8097C66.1394 81.9756 68.9404 81.0278 71.8928 80.516C72.612 80.4023 73.4069 81.0278 73.6719 81.6344Z" fill="white"/>
<path d="M113.946 97.6148C96.7235 95.7381 79.5199 91.7572 62.373 86.9991C61.1239 86.6579 59.9505 86.3546 59.8558 87.3593C58.796 88.0228 60.0072 89.5582 61.5213 90.3165C78.8953 98.9607 91.0268 108.344 103.499 119.851C104.597 120.855 106.944 120.002 106.622 118.258C105.789 113.709 103.802 109.576 100.774 106.24C105.751 105.804 110.521 104.06 114.684 101.065C115.99 100.098 115.612 97.8043 113.946 97.6148Z" fill="white"/>
<path d="M31.0135 149.537C31.6381 150.049 31.8274 150.731 31.6949 151.508C31.0892 155.375 28.7614 158.484 25.9035 161.043C28.8181 162.655 31.2217 165.1 32.6033 168.209L32.5655 168.228C32.6412 168.379 32.7169 168.512 32.7926 168.664C32.8115 168.702 32.7926 168.74 32.8115 168.796C33.0575 169.308 33.0954 169.896 32.7737 170.484C32.3005 171.299 31.0135 171.792 30.1808 171.166C25.8278 167.962 21.0017 165.441 15.8539 163.811C13.9802 163.223 14.0938 160.835 15.816 160.152C18.3521 159.167 20.434 157.309 22.3455 155.451C24.4841 153.385 26.5281 151.243 28.9128 149.423C29.4995 148.949 30.5025 149.12 31.0135 149.537Z" fill="white"/>
<path d="M74.0894 144.987C57.9645 151.338 40.8744 155.811 23.5004 159.565C22.2324 159.83 21.059 160.114 21.4375 161.062C20.794 162.143 22.573 162.939 24.2764 162.901C43.6754 162.484 58.7594 165.157 75.1492 169.536C76.5876 169.915 78.272 168.076 77.1743 166.673C74.3165 163.034 70.6449 160.304 66.4244 158.75C70.6259 156.039 74.0515 152.285 76.3416 147.698C77.0608 146.219 75.6602 144.362 74.0894 144.987Z" fill="white"/>
<path d="M358.091 140.665C355.12 137.025 350.199 137.992 346.717 140.191C345.241 141.12 343.897 142.276 342.742 143.603C342.383 142.238 341.966 140.893 341.361 139.604C339.639 135.926 335.626 131.509 331.311 134.58C327.848 137.044 328.113 142.201 329.419 145.726C330.838 149.575 333.923 152.342 335.929 155.83C336.251 156.399 336.705 156.854 337.235 157.176C337.689 157.859 338.389 158.37 339.241 158.541C345.96 159.83 353.436 156.759 357.259 151.053C359.265 148.058 360.627 143.774 358.091 140.665Z" fill="#F0867B"/>
<path d="M362.974 140.513C361.252 136.665 355.366 136.4 351.789 137.006C348.969 137.48 346.281 138.656 344.048 140.4C343.783 137.746 342.931 135.187 340.887 133.31C338.048 130.675 333.412 130.049 330.611 133.063C327.677 136.229 327.847 141.708 328.529 145.689C329.286 150.049 331.159 154.143 333.96 157.555C335.512 159.432 338.503 157.119 336.951 155.224C333.147 150.617 330.516 143.281 332.465 137.329C333.393 134.485 336.213 134.163 338.313 136.078C340.66 138.22 340.509 142.011 340.263 144.911C340.111 146.693 342.534 147.869 343.651 146.276C345.941 142.978 349.593 140.93 353.606 140.627C355.044 140.513 358.64 140.494 359.454 141.992C360.135 143.262 358.791 145.196 358.091 146.143C353.057 152.949 345.146 157.271 336.78 158.181C334.358 158.446 334.926 162.2 337.348 161.934C345.732 161.024 353.568 156.968 359.227 150.731C361.573 148.134 364.62 144.191 362.974 140.513Z" fill="#651811"/>
<path d="M107.493 71.2273C102.932 70.0519 99.5632 73.7485 98.0492 77.5966C97.4057 79.2269 97.0082 80.952 96.8568 82.696C95.7591 81.805 94.6236 80.9709 93.3744 80.2885C89.8164 78.336 83.9683 77.1417 82.3028 82.1841C80.978 86.2219 84.2143 90.2217 87.356 92.288C90.7816 94.5438 94.8885 94.9419 98.5791 96.5721C99.1847 96.8375 99.8282 96.9323 100.434 96.8754C101.191 97.1598 102.08 97.1598 102.856 96.7807C109.045 93.8424 113.247 86.9422 112.963 80.061C112.83 76.4782 111.392 72.232 107.493 71.2273Z" fill="#F0867B"/>
<path d="M111.354 68.2132C107.701 66.128 102.781 69.4074 100.263 72.0045C98.2573 74.0518 96.8001 76.592 96.0241 79.3217C94.2261 77.3313 92.0496 75.7768 89.2864 75.4735C85.4445 75.0375 81.3376 77.2744 80.8455 81.369C80.3345 85.6532 83.7222 89.9753 86.6179 92.7808C89.7975 95.8518 93.734 98.0318 98.0113 99.1313C100.377 99.7379 101.418 96.0793 99.0522 95.4916C93.2609 94.013 86.8072 89.672 84.8767 83.7196C83.9493 80.8572 86.0312 78.9426 88.8512 79.2459C92.0118 79.5681 94.1315 82.7339 95.6456 85.1982C96.5919 86.7148 99.2226 86.2219 99.1847 84.2883C99.0901 80.2695 100.831 76.4593 103.878 73.8243C104.976 72.8765 107.853 70.7344 109.405 71.4548C110.711 72.0614 110.767 74.4309 110.748 75.6062C110.692 84.0798 106.888 92.2501 100.68 97.937C98.8819 99.5862 101.55 102.278 103.348 100.629C109.575 94.9419 113.493 87.0181 114.382 78.6393C114.723 75.1702 114.855 70.2036 111.354 68.2132Z" fill="#651811"/>
<path d="M326.221 80.099C326.183 79.4545 326.088 78.8099 325.899 78.2033C324.707 74.6585 320.221 72.668 317.269 75.6252C316.152 76.7626 315.774 78.2981 315.471 79.7957C315.168 81.3312 314.941 82.8666 314.827 84.4211C314.808 84.895 314.808 85.3689 314.808 85.8239C314.733 86.1082 314.676 86.4115 314.676 86.7338C314.733 91.871 315.376 97.0272 316.682 101.994C317.496 105.122 321.792 105.937 323.571 103.15C323.931 102.6 324.196 102.013 324.442 101.425C325.577 100.743 326.41 99.6052 326.807 98.2972C327.735 95.3021 328.056 91.9089 328.265 88.7811C328.454 85.6343 328.17 82.6771 326.221 80.099Z" fill="#FDDBBF"/>
<path d="M313.483 88.2503C313.427 86.3547 312.253 84.7434 310.342 84.4021C308.847 84.1367 307.257 84.8381 306.462 86.1461C305.421 86.7717 304.702 87.8712 304.645 89.2171C304.399 93.6719 304.721 98.1646 305.553 102.525C305.894 104.382 307.825 105.558 309.604 105.387C311.534 105.197 312.821 103.681 313.01 101.785C313.464 97.2926 313.616 92.7809 313.483 88.2503Z" fill="#FCC249"/>
<path d="M316.398 100.003C316.323 95.9845 316.171 91.9657 315.925 87.9659C315.793 85.8238 316.058 82.8855 313.257 82.5443C311.08 82.2789 308.771 82.4116 306.576 82.3548C304.153 82.2789 303.869 86.0702 306.311 86.1461C307.446 86.184 308.582 86.2029 309.717 86.2409C310.247 86.2598 310.777 86.2788 311.326 86.2788C311.591 86.2788 311.856 86.2977 312.121 86.2977C312.253 87.4351 312.216 88.6673 312.272 89.7478C312.367 91.3212 312.424 92.8756 312.481 94.449C312.537 96.0224 312.575 97.5768 312.613 99.1502C312.632 99.9654 312.632 100.78 312.651 101.596C312.651 101.937 312.651 102.278 312.651 102.619C312.651 102.733 312.651 102.847 312.651 102.96C311.932 102.998 311.156 102.904 310.493 102.904C309.793 102.904 308.771 103.055 307.976 102.96C307.9 102.638 307.844 102.335 307.787 102.013C307.654 101.368 307.541 100.724 307.446 100.079C307.219 98.7142 307.03 97.3494 306.878 95.9845C306.576 93.3495 306.424 90.7146 306.405 88.0607C306.405 87.037 305.724 86.1082 304.645 86.0323C303.68 85.9565 302.62 86.7716 302.62 87.7953C302.658 91.7572 302.942 95.7381 303.548 99.6621C303.68 100.572 303.831 101.482 304.002 102.373C304.172 103.302 304.286 104.363 304.759 105.197C305.8 107.055 308.241 106.657 310.039 106.676C311.799 106.676 314.279 107.169 315.622 105.766C316.966 104.382 316.436 101.728 316.398 100.003Z" fill="#651811"/>
<path d="M329.968 98.0318C330.384 97.7285 330.82 97.4252 331.236 97.1029C332.277 96.2689 333.11 95.0746 332.75 93.6718C332.353 92.1553 330.933 91.3591 329.362 90.8852C330.687 89.0843 331.387 86.9422 330.233 84.6675C329.287 82.7908 327.697 82.2031 326.031 82.3358C326.58 80.8951 327.299 77.7673 327.318 76.2129C327.318 73.6727 325.975 70.5828 323.041 70.5259C320.259 70.469 318.593 73.4831 317.534 75.6442C316.568 77.6156 315.433 81.805 313.332 82.8666C311.156 83.9661 312.821 87.3593 315.016 86.2598C318.518 84.4969 319.672 79.227 321.546 76.1181C321.716 75.8337 322.549 74.2793 322.965 74.2983C323.457 74.3172 323.533 75.9664 323.533 76.2129C323.533 78.6962 321.849 82.7149 320.656 84.8191C319.597 86.6958 321.716 88.6483 323.457 87.3214C324.233 86.7337 326.807 85.0087 327.015 86.9612C327.186 88.5915 325.312 89.8615 324.233 90.7335C322.927 91.7951 323.76 93.9182 325.35 94.0509C326.126 94.1268 326.902 94.2215 327.659 94.4111C327.754 94.4301 327.924 94.5059 328.113 94.5817C327.659 94.9419 327.167 95.3969 326.902 95.5864C326.126 96.1362 325.35 96.7049 324.574 97.2546C323.59 97.956 323.798 99.6431 324.744 100.25C325.35 100.648 326.504 101.198 327.432 101.311C327.015 101.425 326.58 101.501 326.164 101.596C323.211 102.202 320.24 102.354 317.25 102.126C314.827 101.956 314.562 105.728 316.985 105.918C319.445 106.107 321.924 106.05 324.366 105.747C326.372 105.501 328.738 105.254 330.46 104.098C331.974 103.093 332.712 101.179 331.728 99.5294C331.312 98.8469 330.687 98.373 329.968 98.0318Z" fill="#651811"/>
<path d="M89.0979 159.641C89.0601 158.996 88.9654 158.351 88.7762 157.745C87.5838 154.2 83.0984 152.21 80.146 155.167C79.0293 156.304 78.6508 157.84 78.348 159.337C78.0452 160.873 77.8181 162.408 77.7045 163.963C77.6667 164.418 77.6667 164.891 77.6667 165.346C77.591 165.631 77.5342 165.934 77.5342 166.256C77.591 171.394 78.2344 176.55 79.5403 181.516C80.3541 184.644 84.6503 185.459 86.4294 182.673C86.789 182.123 87.0539 181.535 87.3 180.948C88.4355 180.265 89.2683 179.128 89.6657 177.82C90.5931 174.825 90.9337 171.431 91.123 168.304C91.3312 165.157 91.0284 162.2 89.0979 159.641Z" fill="#FDDBBF"/>
<path d="M76.3603 167.773C76.3036 165.877 75.1302 164.266 73.2186 163.925C71.7235 163.659 70.1337 164.361 69.3388 165.669C68.2979 166.294 67.5787 167.394 67.522 168.74C67.2759 173.194 67.5977 177.687 68.4304 182.047C68.7711 183.905 70.7015 185.08 72.4805 184.91C74.411 184.72 75.6979 183.203 75.8872 181.308C76.3225 176.815 76.4928 172.303 76.3603 167.773Z" fill="#FCC249"/>
<path d="M79.2752 179.526C79.1994 175.507 79.048 171.488 78.802 167.489C78.6695 165.346 78.9345 162.408 76.1334 162.067C73.957 161.802 71.648 161.934 69.4526 161.877C67.0301 161.802 66.7462 165.593 69.1876 165.669C70.3232 165.707 71.4587 165.726 72.5943 165.763C73.1242 165.782 73.6541 165.801 74.203 165.801C74.468 165.801 74.7329 165.82 74.9979 165.82C75.1304 166.958 75.0925 168.19 75.1493 169.27C75.2439 170.844 75.3007 172.398 75.3575 173.972C75.4143 175.545 75.4521 177.099 75.49 178.673C75.5089 179.488 75.5089 180.303 75.5278 181.118C75.5278 181.459 75.5278 181.801 75.5278 182.142C75.5278 182.256 75.5278 182.369 75.5278 182.483C74.8086 182.521 74.0327 182.426 73.3703 182.426C72.67 182.426 71.648 182.578 70.8531 182.483C70.7963 182.161 70.7206 181.858 70.6639 181.535C70.5314 180.891 70.4178 180.246 70.3232 179.602C70.0961 178.237 69.9068 176.872 69.7554 175.507C69.4526 172.872 69.3012 170.237 69.2823 167.583C69.2823 166.56 68.6009 165.631 67.5221 165.555C66.5569 165.479 65.4971 166.294 65.4971 167.318C65.5349 171.28 65.8188 175.261 66.4244 179.185C66.5569 180.095 66.7083 181.005 66.8787 181.895C67.049 182.824 67.1626 183.886 67.6357 184.72C68.6766 186.578 71.1181 186.18 72.916 186.199C74.6761 186.199 77.1554 186.691 78.4992 185.289C79.824 183.924 79.313 181.251 79.2752 179.526Z" fill="#651811"/>
<path d="M92.8449 177.554C93.2612 177.251 93.6965 176.948 94.1129 176.626C95.1538 175.791 95.9866 174.597 95.627 173.194C95.2295 171.678 93.8101 170.882 92.2392 170.408C93.5641 168.607 94.2643 166.465 93.1098 164.19C92.1635 162.313 90.5738 161.726 88.9083 161.858C89.4571 160.418 90.1763 157.29 90.1952 155.735C90.1952 153.195 88.8515 150.105 85.918 150.049C83.1359 149.992 81.4704 153.006 80.4106 155.167C79.4453 157.138 78.3098 161.328 76.209 162.389C74.0325 163.489 75.698 166.882 77.8934 165.782C81.3947 164.019 82.5492 158.75 84.4228 155.641C84.5932 155.356 85.4259 153.802 85.8423 153.821C86.3344 153.84 86.4101 155.489 86.4101 155.735C86.4101 158.219 84.7257 162.238 83.5333 164.342C82.4735 166.218 84.5932 168.171 86.3344 166.844C87.1103 166.256 89.6843 164.531 89.8924 166.484C90.0628 168.114 88.1891 169.384 87.1103 170.256C85.8044 171.318 86.6372 173.441 88.227 173.574C89.0029 173.649 89.7789 173.744 90.5359 173.934C90.6305 173.953 90.8009 174.029 90.9901 174.104C90.5359 174.465 90.0438 174.919 89.7789 175.109C89.0029 175.678 88.227 176.227 87.451 176.796C86.4668 177.498 86.675 179.185 87.6213 179.791C88.2459 180.189 89.3814 180.739 90.3088 180.853C89.8924 180.967 89.4571 181.042 89.0408 181.137C86.0883 181.744 83.117 181.895 80.1267 181.668C77.7041 181.497 77.4392 185.27 79.8617 185.459C82.3221 185.649 84.8014 185.592 87.2428 185.289C89.249 185.042 91.6147 184.796 93.337 183.639C94.851 182.635 95.5891 180.72 94.605 179.071C94.1886 178.37 93.5451 177.896 92.8449 177.554Z" fill="#651811"/>
<path d="M320.316 181.118C320.221 180.986 320.127 180.872 320.013 180.739C319.786 180.512 319.502 180.341 319.18 180.246C319.01 180.227 318.84 180.208 318.669 180.17C318.329 180.17 318.007 180.265 317.723 180.436C317.363 180.606 317.004 180.796 316.663 180.967C316.436 181.08 316.266 181.251 316.133 181.459C315.963 181.649 315.849 181.858 315.793 182.104C315.717 182.35 315.698 182.616 315.755 182.862C315.774 183.109 315.849 183.355 315.982 183.564C316.076 183.696 316.171 183.81 316.285 183.943C316.512 184.17 316.796 184.341 317.117 184.436C317.288 184.455 317.458 184.474 317.628 184.511C317.969 184.511 318.291 184.417 318.575 184.246C318.934 184.075 319.294 183.886 319.635 183.715C319.862 183.602 320.032 183.431 320.164 183.222C320.335 183.033 320.448 182.824 320.505 182.578C320.581 182.331 320.6 182.066 320.543 181.82C320.524 181.573 320.448 181.327 320.316 181.118Z" fill="white"/>
<path d="M344.824 189.307C342.383 189.307 342.383 193.099 344.824 193.099C347.247 193.099 347.266 189.307 344.824 189.307Z" fill="white"/>
<path d="M378.38 131.661C375.938 131.661 375.938 135.452 378.38 135.452C380.821 135.452 380.821 131.661 378.38 131.661Z" fill="white"/>
<path d="M337.349 69.7487C334.907 69.7487 334.907 73.54 337.349 73.54C339.79 73.54 339.79 69.7487 337.349 69.7487Z" fill="white"/>
<path d="M286.741 90.563C284.3 90.563 284.3 94.3543 286.741 94.3543C289.164 94.3543 289.183 90.563 286.741 90.563Z" fill="white"/>
<path d="M71.458 115.642C69.0166 115.642 69.0166 119.434 71.458 119.434C73.8806 119.434 73.8995 115.642 71.458 115.642Z" fill="white"/>
<path d="M91.709 125.253C89.2676 125.253 89.2676 129.045 91.709 129.045C94.1316 129.045 94.1316 125.253 91.709 125.253Z" fill="white"/>
<path d="M129.542 82.0135C127.101 82.0135 127.101 85.8048 129.542 85.8048C131.965 85.8048 131.983 82.0135 129.542 82.0135Z" fill="white"/>
<path d="M48.5391 178.635C46.0976 178.635 46.0976 182.426 48.5391 182.426C50.9805 182.426 50.9805 178.635 48.5391 178.635Z" fill="white"/>
<path d="M49.5996 135.395C47.1582 135.395 47.1582 139.186 49.5996 139.186C52.0411 139.186 52.0411 135.395 49.5996 135.395Z" fill="white"/>
<path d="M106.093 152.475C103.651 152.475 103.651 156.266 106.093 156.266C108.515 156.266 108.534 152.475 106.093 152.475Z" fill="white"/>
<path d="M374.216 175.469C373.876 175.147 373.346 174.901 372.872 174.938C372.38 174.976 371.869 175.128 371.548 175.507C371.453 175.64 371.358 175.773 371.264 175.886C371.093 176.19 371.018 176.512 371.018 176.853C370.904 178.161 370.791 179.469 370.677 180.777C370.639 181.232 370.942 181.801 371.245 182.104C371.585 182.426 372.115 182.673 372.589 182.635C373.081 182.597 373.592 182.445 373.913 182.066C374.008 181.933 374.103 181.801 374.197 181.687C374.368 181.384 374.443 181.061 374.443 180.72C374.557 179.412 374.67 178.104 374.784 176.796C374.822 176.341 374.519 175.773 374.216 175.469Z" fill="white"/>
<path d="M370.033 182.426C369.901 182.332 369.768 182.237 369.655 182.142C369.352 181.971 369.03 181.896 368.69 181.896C367.743 182.028 366.797 182.161 365.851 182.294C365.586 182.294 365.34 182.35 365.132 182.464C364.904 182.54 364.696 182.673 364.526 182.862C364.204 183.204 363.958 183.734 363.996 184.208C364.034 184.701 364.185 185.213 364.564 185.535C364.696 185.63 364.829 185.725 364.942 185.82C365.245 185.99 365.567 186.066 365.908 186.066C366.854 185.933 367.8 185.801 368.746 185.668C369.011 185.668 369.257 185.611 369.466 185.497C369.693 185.421 369.901 185.289 370.071 185.099C370.393 184.758 370.639 184.227 370.601 183.753C370.582 183.279 370.412 182.768 370.033 182.426Z" fill="white"/>
<path d="M375.031 190.009C374.822 189.535 374.69 189.023 374.595 188.511C374.557 188.056 374.538 187.582 374.595 187.127C374.633 186.673 374.33 186.104 374.027 185.801C373.687 185.478 373.157 185.232 372.684 185.27C372.192 185.308 371.681 185.459 371.359 185.838C371.264 185.971 371.17 186.104 371.075 186.218C370.905 186.521 370.829 186.843 370.829 187.184C370.753 187.848 370.81 188.511 370.905 189.156C370.999 189.819 371.151 190.445 371.416 191.07C371.473 191.317 371.586 191.525 371.756 191.715C371.889 191.923 372.078 192.075 372.286 192.189C372.703 192.416 373.289 192.511 373.744 192.359C374.198 192.208 374.633 191.905 374.86 191.469C374.917 191.317 374.974 191.165 375.049 191.014C375.144 190.691 375.125 190.35 375.031 190.009Z" fill="white"/>
<path d="M380.859 183.583C380.707 183.128 380.405 182.692 379.969 182.464C379.818 182.407 379.666 182.35 379.515 182.275C379.231 182.199 378.947 182.199 378.644 182.275C377.944 182.369 377.225 182.388 376.506 182.332C376.241 182.332 375.995 182.388 375.787 182.502C375.56 182.578 375.351 182.711 375.181 182.9C374.992 183.071 374.878 183.279 374.802 183.507C374.689 183.734 374.632 183.981 374.651 184.246C374.689 184.739 374.84 185.251 375.219 185.573C375.351 185.668 375.484 185.763 375.597 185.857C375.9 186.028 376.222 186.104 376.563 186.104C377.566 186.199 378.569 186.104 379.553 185.914C379.799 185.857 380.007 185.744 380.196 185.573C380.405 185.44 380.556 185.251 380.67 185.042C380.802 184.815 380.878 184.587 380.878 184.341C380.972 184.094 380.953 183.848 380.859 183.583Z" fill="white"/>
<path d="M83.7601 49.2378C83.4195 48.9155 82.8895 48.6691 82.4164 48.707C81.9243 48.7449 81.4133 48.8966 81.0916 49.2757C80.9969 49.4084 80.9023 49.5411 80.8077 49.6548C80.6374 49.9581 80.5617 50.2804 80.5617 50.6216C80.4481 51.9296 80.3345 53.2376 80.221 54.5456C80.1831 55.0005 80.4859 55.5692 80.7888 55.8725C81.1294 56.1948 81.6593 56.4412 82.1325 56.4033C82.6246 56.3654 83.1356 56.2138 83.4573 55.8346C83.5519 55.7019 83.6466 55.5692 83.7412 55.4555C83.9115 55.1522 83.9872 54.8299 83.9872 54.4887C84.1008 53.1807 84.2144 51.8727 84.3279 50.5647C84.3658 50.1287 84.0629 49.5411 83.7601 49.2378Z" fill="white"/>
<path d="M79.5773 56.1948C79.4449 56.1 79.3124 56.0053 79.1988 55.9105C78.896 55.7399 78.5743 55.664 78.2336 55.664C77.2873 55.7967 76.341 55.9294 75.3947 56.0621C75.1298 56.0621 74.8837 56.119 74.6755 56.2327C74.4484 56.3086 74.2402 56.4412 74.0699 56.6308C73.7482 56.972 73.5021 57.5028 73.54 57.9767C73.5778 58.4696 73.7292 58.9814 74.1078 59.3037C74.2402 59.3985 74.3727 59.4932 74.4863 59.588C74.7891 59.7586 75.1108 59.8345 75.4515 59.8345C76.3978 59.7018 77.3441 59.5691 78.2904 59.4364C78.5553 59.4364 78.8014 59.3795 79.0096 59.2658C79.2367 59.1899 79.4449 59.0572 79.6152 58.8677C79.9369 58.5265 80.183 57.9957 80.1451 57.5218C80.1262 57.0479 79.9559 56.536 79.5773 56.1948Z" fill="white"/>
<path d="M84.5745 63.7774C84.3663 63.3035 84.2339 62.7917 84.1392 62.2798C84.1014 61.8249 84.0825 61.351 84.1392 60.896C84.196 60.4411 83.8743 59.8724 83.5715 59.5691C83.2308 59.2468 82.7009 59.0004 82.2277 59.0383C81.7356 59.0762 81.2246 59.2278 80.9029 59.607C80.8083 59.7397 80.7136 59.8724 80.619 59.9861C80.4487 60.2894 80.373 60.6117 80.373 60.9529C80.2973 61.6164 80.354 62.2798 80.4487 62.9244C80.5433 63.5878 80.6947 64.2134 80.9597 64.839C81.0165 65.0854 81.13 65.2939 81.3004 65.4835C81.4328 65.692 81.6221 65.8437 81.8303 65.9574C82.2466 66.1849 82.8333 66.2797 83.2876 66.128C83.7418 65.9764 84.1771 65.6731 84.4042 65.2371C84.461 65.0854 84.5178 64.9338 84.5935 64.7821C84.6692 64.4598 84.6692 64.1186 84.5745 63.7774Z" fill="white"/>
<path d="M90.4027 57.3701C90.2513 56.9152 89.9485 56.4792 89.5132 56.2517C89.3618 56.1948 89.2104 56.1379 89.059 56.0621C88.7751 55.9863 88.4912 55.9863 88.1884 56.0621C87.4881 56.1569 86.7689 56.1759 86.0497 56.119C85.7848 56.119 85.5387 56.1759 85.3305 56.2896C85.1034 56.3654 84.8952 56.4981 84.7249 56.6877C84.5357 56.8583 84.4221 57.0668 84.3464 57.2943C84.2328 57.5218 84.1761 57.7682 84.195 58.0336C84.2328 58.5265 84.3842 59.0383 84.7628 59.3605C84.8952 59.4553 85.0277 59.5501 85.1413 59.6449C85.4441 59.8155 85.7658 59.8913 86.1065 59.8913C87.1096 59.9861 88.1127 59.8913 89.0968 59.7018C89.3428 59.6449 89.551 59.5312 89.7403 59.3605C89.9485 59.2278 90.0999 59.0383 90.2134 58.8298C90.3459 58.6023 90.4216 58.3748 90.4216 58.1284C90.4973 57.863 90.4973 57.6165 90.4027 57.3701Z" fill="white"/>
</svg>
