<svg width="1500" height="740" viewBox="0 0 1500 740" fill="none" xmlns="http://www.w3.org/2000/svg">
<circle cx="216.5" cy="428.5" r="143.5" fill="#0D8CE9" fill-opacity="0.37"/>
<g filter="url(#filter0_d_1_682)">
<path d="M-32.7336 711.465C493.399 686 1420.9 784 1456.9 661C1492.9 538 493.266 602.465 303.766 549.465C191.293 518.008 90.7664 392.965 92.7664 251.965C94.7664 110.965 -21.3787 -77.8216 -103.734 46.465C-227.983 233.977 -558.866 736.93 -32.7336 711.465Z" fill="#0D8CE9"/>
<path d="M1455.46 660.579C1453.34 667.818 1447.9 674.388 1439.18 680.316C1430.45 686.245 1418.54 691.457 1403.7 696.004C1374.02 705.099 1332.9 711.449 1282.82 715.7C1182.67 724.2 1046.98 724.279 895.912 721.308C813.942 719.696 727.446 717.186 639.659 714.639C403.947 707.798 158.922 700.687 -32.8061 709.967C-164.19 716.326 -241.57 689.66 -282.137 643.678C-322.687 597.718 -326.868 531.985 -310.663 459.157C-294.466 386.368 -257.979 306.862 -217.731 233.783C-177.492 160.72 -133.546 94.1724 -102.483 47.2935C-82.0797 16.5015 -59.8549 5.46113 -38.1669 7.8041C-16.3197 10.1643 5.53015 26.143 24.9741 50.6644C63.8327 99.6702 92.2618 181.777 91.2665 251.944C89.2571 393.608 190.217 519.265 303.362 550.91C327.201 557.577 363.673 562.374 409.082 565.925C454.518 569.477 508.999 571.788 568.909 573.454C635.762 575.313 709.431 576.37 784.863 577.453C844.593 578.31 905.428 579.183 964.863 580.482C1099.41 583.424 1226.84 588.553 1318.36 600.622C1364.15 606.66 1400.82 614.419 1424.88 624.451C1436.93 629.472 1445.66 635 1450.82 641.035C1455.92 646.992 1457.55 653.431 1455.46 660.579Z" stroke="#0D8CE9" stroke-width="3" stroke-linejoin="round"/>
<path d="M1455.46 660.579C1453.34 667.818 1447.9 674.388 1439.18 680.316C1430.45 686.245 1418.54 691.457 1403.7 696.004C1374.02 705.099 1332.9 711.449 1282.82 715.7C1182.67 724.2 1046.98 724.279 895.912 721.308C813.942 719.696 727.446 717.186 639.659 714.639C403.947 707.798 158.922 700.687 -32.8061 709.967C-164.19 716.326 -241.57 689.66 -282.137 643.678C-322.687 597.718 -326.868 531.985 -310.663 459.157C-294.466 386.368 -257.979 306.862 -217.731 233.783C-177.492 160.72 -133.546 94.1724 -102.483 47.2935C-82.0797 16.5015 -59.8549 5.46113 -38.1669 7.8041C-16.3197 10.1643 5.53015 26.143 24.9741 50.6644C63.8327 99.6702 92.2618 181.777 91.2665 251.944C89.2571 393.608 190.217 519.265 303.362 550.91C327.201 557.577 363.673 562.374 409.082 565.925C454.518 569.477 508.999 571.788 568.909 573.454C635.762 575.313 709.431 576.37 784.863 577.453C844.593 578.31 905.428 579.183 964.863 580.482C1099.41 583.424 1226.84 588.553 1318.36 600.622C1364.15 606.66 1400.82 614.419 1424.88 624.451C1436.93 629.472 1445.66 635 1450.82 641.035C1455.92 646.992 1457.55 653.431 1455.46 660.579Z" stroke="#0D8CE9" stroke-opacity="0.2" stroke-width="3" stroke-linejoin="round"/>
</g>
<defs>
<filter id="filter0_d_1_682" x="-333" y="0" width="1802.85" height="742.582" filterUnits="userSpaceOnUse" color-interpolation-filters="sRGB">
<feFlood flood-opacity="0" result="BackgroundImageFix"/>
<feColorMatrix in="SourceAlpha" type="matrix" values="0 0 0 0 0 0 0 0 0 0 0 0 0 0 0 0 0 0 127 0" result="hardAlpha"/>
<feOffset dy="6"/>
<feGaussianBlur stdDeviation="6"/>
<feComposite in2="hardAlpha" operator="out"/>
<feColorMatrix type="matrix" values="0 0 0 0 0 0 0 0 0 0 0 0 0 0 0 0 0 0 0.15 0"/>
<feBlend mode="normal" in2="BackgroundImageFix" result="effect1_dropShadow_1_682"/>
<feBlend mode="normal" in="SourceGraphic" in2="effect1_dropShadow_1_682" result="shape"/>
</filter>
</defs>
</svg>
